/* XPM */
static char *ludres_removebg_preview[] = {
/* columns rows colors chars-per-pixel */
"64 64 256 2 ",
"   c #09151F",
".  c #0A181A",
"X  c #120B0F",
"o  c #2F0D0A",
"O  c #091621",
"+  c #0A1925",
"@  c #0B1D2B",
"#  c #071620",
"$  c #161537",
"%  c #12162C",
"&  c #241B28",
"*  c #0D2234",
"=  c #0E2639",
"-  c #0F293E",
";  c #122434",
":  c #12293D",
">  c #162A3B",
",  c #132A31",
"<  c #312F33",
"1  c #511510",
"2  c #49382E",
"3  c #69301A",
"4  c #1A461A",
"5  c #2F6C27",
"6  c #255C26",
"7  c #6B4E18",
"8  c #594C2F",
"9  c #73552B",
"0  c #64512C",
"q  c #14174A",
"w  c #181A58",
"e  c #0D1049",
"r  c #132D42",
"t  c #1A2C43",
"y  c #163146",
"u  c #1B3245",
"i  c #1B354A",
"p  c #1E394E",
"a  c #173348",
"s  c #1F3A50",
"d  c #1E3559",
"f  c #15294A",
"g  c #203A4E",
"h  c #233547",
"j  c #203B51",
"k  c #263958",
"l  c #283052",
"z  c #1D1C64",
"x  c #1E2468",
"c  c #23256C",
"v  c #283868",
"b  c #272A78",
"n  c #2B347C",
"m  c #383B6E",
"M  c #201F69",
"N  c #413958",
"B  c #244056",
"V  c #26435B",
"C  c #29455D",
"Z  c #294255",
"A  c #374A53",
"S  c #3B7251",
"D  c #2D4B64",
"F  c #2D4966",
"G  c #314F69",
"H  c #344C66",
"J  c #33536C",
"K  c #3E5569",
"L  c #354675",
"P  c #365671",
"I  c #3A5B76",
"U  c #3C5C79",
"Y  c #385574",
"T  c #2F4778",
"R  c #4F504F",
"E  c #6C5548",
"W  c #796B50",
"Q  c #4A5070",
"!  c #4F6875",
"~  c #706B6F",
"^  c #615E62",
"/  c #9F3630",
"(  c #91583B",
")  c #9B7329",
"_  c #936E31",
"`  c #A6782B",
"'  c #A67C36",
"]  c #AC762B",
"[  c #955929",
"{  c #91714E",
"}  c #AD7651",
"|  c #8D796B",
" . c #AF7B64",
".. c #985A41",
"X. c #C8674E",
"o. c #3A8833",
"O. c #428C3B",
"+. c #50914C",
"@. c #669662",
"#. c #B88737",
"$. c #AE8437",
"%. c #C48936",
"&. c #C7943C",
"*. c #D0913A",
"=. c #D8A03F",
"-. c #988351",
";. c #B1894F",
":. c #8D8A77",
">. c #B28E6A",
",. c #AEA778",
"<. c #90AB67",
"1. c #CB8353",
"2. c #D68B55",
"3. c #D0984B",
"4. c #F29D5E",
"5. c #E59158",
"6. c #D9A64A",
"7. c #DAAB58",
"8. c #CFA75B",
"9. c #E2AC49",
"0. c #E9B44C",
"q. c #EAB756",
"w. c #EAB655",
"e. c #CF966E",
"r. c #EB9B63",
"t. c #C9A677",
"y. c #D4AC78",
"u. c #D8B37C",
"i. c #C7B073",
"p. c #EAB87C",
"a. c #EBAD6A",
"s. c #F5C659",
"d. c #EDC25B",
"f. c #F6CA65",
"g. c #F4D070",
"h. c #D3C373",
"j. c #2C3687",
"k. c #333A88",
"l. c #2F388E",
"z. c #354589",
"x. c #2E4196",
"c. c #32469B",
"v. c #374797",
"b. c #394E8C",
"n. c #3B4CA4",
"m. c #384CA5",
"M. c #3D51AB",
"N. c #3F52B0",
"B. c #47539B",
"V. c #50558C",
"C. c #5A698A",
"Z. c #52668E",
"A. c #6D7692",
"S. c #4B5AAD",
"D. c #4655A8",
"F. c #4C5CB3",
"G. c #4C5EBA",
"H. c #4657B2",
"J. c #515DB5",
"K. c #525DBA",
"L. c #4853A6",
"P. c #5964A8",
"I. c #4E60BB",
"U. c #5262BC",
"Y. c #5765B8",
"T. c #4C60AC",
"R. c #636CB7",
"E. c #7077B0",
"W. c #5465C2",
"Q. c #5B6CC4",
"!. c #5868C9",
"~. c #5E70C7",
"^. c #5B6DD3",
"/. c #5A6BCF",
"(. c #616CCA",
"). c #6472C9",
"_. c #6675D6",
"`. c #737ACC",
"'. c #807C9C",
"]. c #7A83B8",
"[. c #738195",
"{. c #7783D4",
"}. c #878A95",
"|. c #949196",
" X c #AA978F",
".X c #B0AC91",
"XX c #8F8FAD",
"oX c #A198A7",
"OX c #A7A6AB",
"+X c #AAAAB5",
"@X c #B1AEB6",
"#X c #B5B4BC",
"$X c #B9B3B8",
"%X c #BDADA4",
"&X c #96A1A4",
"*X c #DAB684",
"=X c #CBAF8E",
"-X c #E3BC86",
";X c #E1BD99",
":X c #C6B2A8",
">X c #C3B9B8",
",X c #B5C8B1",
"<X c #EAC489",
"1X c #F1CB8C",
"2X c #F3CE94",
"3X c #FBDD99",
"4X c #F7D695",
"5X c #F2D590",
"6X c #FBE39D",
"7X c #F7E79E",
"8X c #EED3AB",
"9X c #FBE9A5",
"0X c #FDF2AA",
"qX c #FCF0A6",
"wX c #FAECB2",
"eX c #D0C99B",
"rX c #8B93CF",
"tX c #BBB9C5",
"yX c #B1B3CF",
"uX c #979FD7",
"iX c #C3BCCA",
"pX c #C5BFD0",
"aX c #BEC0C9",
"sX c #C4C3CB",
"dX c #C6C5D1",
"fX c #CBCBD5",
"gX c #CDCBDA",
"hX c #C9C5D4",
"jX c #D1CDDC",
"kX c #CED1DC",
"lX c #D2D2DE",
"zX c #DDD8D7",
"xX c #D3CDCD",
"cX c #E8DACB",
"vX c #D4D4E2",
"bX c #DADAE6",
"nX c #DCDCEA",
"mX c #D7D7E7",
"MX c #CCCDE1",
"NX c #E1DEED",
"BX c #DEE1ED",
"VX c #DEE2F0",
"CX c #E2E2EE",
"ZX c #EEEAE5",
"AX c #E4E5F2",
"SX c #E6E9F5",
"DX c #EAEAF6",
"FX c #ECEDF9",
"GX c #E8E7F4",
"HX c #EEF0FB",
"JX c #F3F4FC",
"KX c #F6F9FE",
"LX c #FCFDFE",
"PX c #F5F5F6",
"IX c #F1EEF1",
"UX c #F4E5D4",
/* pixels */
"+ * - *   * = * = = * @ + = - : - * * * = - - a ; = y s s s I U # * y j j j j s s s D J a , r i s s s s C U a @ = d y @ # = - - ",
"+ @ * + + @ @ O @ @ + + + @ @ * * @ + # @ * * @ + + = p s s D U + - i s j j j j s s j J s # - a s s s j s I u , L M.z.@ + + * @ ",
"U Q I > J U U V V I U U U U D J U U J F U U J G > O = a s s I U @ - i s j j p j s s s D J = p F F H G J Q P.P.T.D.N.m.T I I U G ",
"G V U ; r j G P P V V k C P I P B V I I D V I U > * r p s D U U @ - i s s k G b.B.T.T.T.T.T.N.H.F.S.J.Y.T.T.D.M.m.m.m.v.C B V I ",
"s B U , @ a s B B j j j p s s s s s V F g p C U > r a i j V I U   @ = v b.H.F.D.D.N.H.H.I.I.I.I.G.G.H.N.N.N.M.M.m.m.c.l.j s s C ",
"i G U = = - a i s j s i i p j p i i r s j p p U > : u p i j D U # = v m.n.M.H.I.W.Q.~.~.~./.~.~.!.I.I.I.G.H.N.N.m.c.j.v s k s p ",
"* p D * + = - r y y a : * : y y r @ r r t r t k u k b.B.S.Y.F.S.v.w j.l.v.n.D.I.Y.~.).).~.).).~.Q.Q.W.I.I.N.N.N.m.m.j.d v j.v r ",
"  # = #   # @ * O @ #     * * * @ # @ * * # l B.U.W.Y.!.Q.U.U.S.m.x w n v.n.D.F.I.Y.Y.Y.~.~.~.~.Q.Q.U.U.I.H.I.N.N.m.m.c.c.c.c.* ",
"; C C C C C > +     +           X %     l L.K.K.W.W.U.J.S.S.H.L.v.n e q v z.c.H.I.Y.Y.~.~.).).~.~.~.Q.I.I.H.N.N.M.m.m.m.m.m.c.a ",
"@ V J U G J I g + ; u y * v d l l m V.R.Y.K.K.K.J.F.U.Q.U.S.L.L.z.d , 4 4 , f x j.v.b.M.D.D.D.T.T.H.H.H.N.N.N.M.m.m.m.c.c.c.c.J ",
"+ r j J C j J I u J V i i L.K.K.K.K.K.J.J.J.J.K.U.U.D.n.S.S.B.f 4 o.o.o.o.o.o.6 , * w c c n j.l.x.x.x.c.c.c.m.c.m.m.c.c.x.v.b.U ",
"+ = p j g g p I D J j j g n H.H.H.S.S.H.S.S.L.S.L.v.D.S.D.z., 5 o.o.O.O.+.+.+.+.@.! S 4 .   # $ q w x x x n j.l.x.c.c.x.v.Y G J ",
"O = a i g s s U C J j g g k v.D.H.L.L.L.L.M.n.v.x.D.D.n.v.f 5 S o.o.+.+.@.@.@.! V.}.,X+.o.5 8 { | ~ Q k.k.v.m.c.c.c.x.l.b.p P D ",
"@ r a s j j s U g U V j j g k j.l.l.L.L.v.v.v.c.v.v.v.z.k.4 S S S +.@.,.eXh.eX<.@.&X,X<.h.4X3X6X6X3X4X>.v n l.x.l.x.x.l.b.p C I ",
"+ - a i g j C U u J s s j j j j l m B.v.v.z.x.z.x.z.z.k.w 6 S A.&X:XwXwXqX0X0XqX9XeX6X6X7X7X6X6X3X6X6X4X.Xc j.j.j.j.j.j.L s j J ",
"  @ r i j j j U > P V j j j v j.j.B.v.x.l.l.j.j.n n n b $ 5 O.}.8XwX8XwX7XqX0X0X0X0XqXqXqX9X6X3X2X1X6X3X2XQ x b b j.j.v g s s J ",
"# @ - u s i i U g I J C p j V c.v.v.l.j.j.j.j.b b b b Q |  X=X=X8X8X8X3X4X2X4X4X3X9X7X3X3X4X5X*Xu.4X3X4X<X~ c c c c f + u g C U ",
"+ = - r y - r V V J Z j V J P b.l.j.j.b b M M M M M | :X;X8X;X8X8X4X4X1X;X;X*X=Xt.y.t.e.>.{ E y.4X3X4X<Xu.Q M w q f * . u k P U ",
"  O # @ @ + * * > Z Z G G &X.XA t v c M M z M z z w =X=X;X;X;X;X-X-X*X>.>XPXJXzXX X 1 1 1 3 <X4X4X2X-Xy.^ $ @ 8 ;.7.8.;.R G I C ",
"; D D D J C D ; C K Z Z J :.g.g.R H Y v c z z e e e =X=X=Xe.e.y.t.>.2 X E zXJX>X1 / / / } 4X3X4X1X*X>.R u 7 9 ) &.q.d.d.d.A P U ",
"@ s s C D j G * B ,X5X,.~ D >.g.g.,.^ g k k w q e $ { ,.>.>.} { 2 X o 1 3 /  ./ / X.X.-X3X4X4X<X,.^ s s s 8 0 $.$.=.9.d.s.-.V U ",
"@ - y p i B I   , A >.g.g.7.-.6.f.g.g.h.{ h l m q % % ( ;.>.>.>.;.{ ( [ / ....} a.2X3X4X4X5X-Xt.| A s s p G h 7 &.d.s.g.f.8.V b.",
"# = - y y y G O @ : g A -.7.s.6.d.d.f.3X8X8.< & < ;.;.{ 3.$.;.;.e.>.e.=X-X<X<X1X1X1X2X-X<Xy.t.t.u.u.{ < - : X X 7 [ #.0.0.;., D ",
"# # * + + + =   , u g i A W ;.9.6.6.9.:X:Xw.E ^ R ;.s.f.f.f.w.3.$.' } >.>.t.y.t.*Xy.y.y.e.t.p.g.<Xp.u.$.7 & X X 4 7 ) $._ h # + ",
"C a > V C C C + * ! ,.8.g.q.6.7.9.=.&.#.#.[ % N < ;.s.f.g.g.f.f.q.7.#.) _ _ -.;.-.;.>.t.p.p.p.1X1X5X4X1X$.3 o X W & . < A D C p ",
"P I J I G C U * - ! :.-.-.E R W -.;.;.$.7 X & % 2 *.0.q.d.d.s.q.q.w.7.6.#.$.) ) ;.e.y.p.1X4X6X9X6X7X6X6X<X) ) 7 7 2 2 Q I G J U ",
"C I G B p V I * : : g j p p v Y @ , s u & % ~ R 9 _ ` $.#.#.&.&.3.6.9.9.w.w.7.7.7.3X9X0XqX0X0X0XqXqX7X7X5Xh.` #.#.$.A C C p p B ",
"s s s s p B U + * : : u y - j Z.! C.C.C.C.P.~ { W [ 9 | 9 9 [ ) $.#.6.0.w.s.f.f.s.6X0X0XwX0X0X0XqXqX7X7X5X<X` $.-.A p B p p p B ",
"s s s s s P D O + @ : * @ h XXXXXXXXXXA.V.c m 8 3 3 E |. XW 9 ` #.&.9.0.q.s.f.f.f.g.6XqX0X0X9X9X7X7X7XqX6X3X| A p B s s j s s B ",
"s s p a s D P + i j g Z j A.J.E.XXXX}.& X % $ 2 o & N :XcXxX-.] #.=.9.0.s.s.f.f.f.f.f.5X7X9X0X0XqXqXqX7X9X4X:.a p s s s j s p p ",
": i - - y p P @ i C V i C E.W.W.^.{.rX{.m $ % X $ e w |.8XUX:X) &.6.9.0.s.s.f.f.f.s.f.g.7XqXqX0XqX9X7X6X7X2X~ = - - y a y - y i ",
"= @ + . * - i . * t a K oXY.K.W.W.W./._._.`.V.l 1 & e Q %XcXcX{ $.#.=.0.0.s.s.s.s.s.s.q.g.6X6X9X6X3X3X4X<X<XR O @ , @ - = + @ = ",
"> , > > t O # #     A.NXgXR.S.J.F.U.I.W.W./.^./.(.V.m w ~ >X8X.X) #.=.9.9.0.0.0.0.0.0.0.9.q.g.5X5X5X2X4X-X*Xh % ; > > > i > > u ",
"I V P U U > a * % oXNXNXGXNXyXR.S.H.F.G.G.W.W.!.(.^.^.^.R.E.oX%X;.0.q.s.s.s.s.s.0.9.=.*.3.#.3.i.*X-X*X*X=XoXC.I C P I I I I U U ",
"J U C V ! r U k +XNXNXGXIXHXPXDXyX].D.S.H.H.I.I.W.W.!./._._._._.E.XX X=Xg.g.f.s.s.0.&.` ) ) ) 9 _ { { { h N E.rX].V.s s s s V I ",
"s B s k U = P &XNXAXGXIXHXJXKXLXLXLXVXyXE.D.D.D.H.G.G.W.W.!.!.^._._._._._.{.XX X X>.-.9 7 7 7 7 7 7 7 8 X X m rXrXuXE.B g g g B ",
"p j j D J ; A.nXNXAXGXIXPXKXKXLXLXLXLXLXLXDXyXrXP.L.H.F.T.I.U.W.W.W.!./.^.^._._._._._.).R.P.C.V.Q Q ~ Q Q Q E.rXrXuXuX{.s B g g ",
"i p s P D k gXnXNXGXDXHXKXKXLXLXLXLXLXLXLXLXLXLXLXVXyXrXR.S.S.T.I.U.U.U.W.W.!.!.!.!.!./.^.^.(.^.^._._._._.`.{.{.{.{.).P.s s s s ",
"- r i D J A.mXNXNXGXDXIXKXKXKXKXLXLXLXLXLXLXLXLXLXLXLXLXLXDXdXyX].P.S.S.S.J.G.G.U.U.K.W.K.W.U.U.W.U.W.U.W.U.U.Y.G.J.P.F a p s i ",
"+ * * - d pXmXNXNXGXFXIXJXPXKXJXLXLXLXLXLXLXLXLXLXLXLXLXLXLXKXLXLXLXSXMXyXrXE.P.D.D.H.S.S.S.S.J.T.I.F.S.J.S.S.L.L.S.Z.- - - * , ",
"+ # O @ > MXnXnXNXGXGXIXIXJXJXJXJXKXKXKXLXLXLXLXLXLXLXLXLXLXLXLXLXLXLXLXLXLXLXLXDXmXyXuXrXE.P.P.T.B.B.M.B.B.B.B.Z.E.+X* @ @ + + ",
"P k G U [.mXmXnXNXNXGXGXFXIXJXJXJXJXKXKXKXLXLXLXLXLXLXLXLXLXLXLXLXLXLXLXLXLXLXLXLXLXLXLXLXLXLXKXPXSXVXbXmXvXvXmXnXmXgXZ.I I I I ",
"I P G V A.jXmXmXNXNXGXGXGXFXIXIXJXJXKXJXKXKXKXLXLXLXLXLXLXLXLXLXLXLXLXLXLXLXLXLXLX}.PXLXLXLXLXKXKXKXKXJXHXHXDXSXAXmXMX[.V V V J ",
"V D s s C.MXvXmXnXNXNXNXGXGXFXFXIXFXJXJXJXJXKXJXKXKXLXLXLXLXLXLXLXLXLXLXLXLXLXKXLXPXLXLXLXLXLXKXKXKXJXHXHXFXSXAXmX+XMXC.s s s s ",
"r i s s Q gXvXvXnXnXNXNXCXGXGXDXDXFXFXHXHXHXJXJXJXJXKXKXKXKXKXKXLXLXLXLXLXcXg.q.w.7.*XZXKXKXKXKXKXJXJXHXHXSXSXBXxX=XfX! a p s s ",
"* r r t > pXgXlXvXmXmXNXNXCXCXCXAXGXFXDXFXFXFXHXHXHXJXJXJXKXKXKXKXKXKXKX8X3.q.9.0.9.%.3.ZXKXJXJXJXHXHXFXSXSXBXzX3.#.>.K r r y y ",
"# # ; ; + }.gXgXvXvXmXmXNXNXNXNXCXAXAXSXSXSXDXFXHXHXHXHXJXHXHXJXJXJXKXJX;.%.*.%.*.*.%.%.8XFXHXFXFXFXFXSXAXCXNXy.%.#.$., + = *   ",
"O #       l pXgXjXjXvXzXvXlXbXNXbXnXnXBXBXVXVXAXSXSXSXSXFXHXFXHXHXHXHXFX>.#.#.%.%.%.%.' zXFXFXFXSXSXSXVXBXnXxX#.#.#.W           ",
"@ O     @ @ }.dXfXgXjXjXvXmXvXmXmXbXbXNXbXbXnXnXBXBXCXCXBXAXAXSXSXSXIXSXbX>.[ ] ] ` ;.xXAXSXAXAXBXBXBXBXmXvXgX) ` $.< . , @ . . ",
"y - ; + u p Z tXhXhXjXjXjXjXjXjXlXvXlXlXlXvXmXmXbXbXbXnXBXBXBXBXBXBXBXCXCXbXxX:X%XsXmXBXBXBXBXnXBXmXvXkXkXMXdXOX XA.@ > i i = @ ",
"g j j j s s s Q iXpXhXjXjXjXjXjXjXjXjXjXlXjXlXlXlXvXvXvXbXbXbXbXBXBXBXbXBX|.pXNXbXBXbXbXbXmXvXvXlXkXkXfXdXdXyX+X}.Z y s s s p y ",
"g g j j s s a i ! tXpXpXpXpXjXpXhXgXhXhXfXfXfXfXfXfXkXkXkXkXkXkXlXkXlXlXlXlXzXnXlXlXlXlXlXkXjXgXgXfXdXaXaXtXtX+XK g s s p s s s ",
"s t i j j i s i f Q yXpXpXpXpXxXiXpXpXpXpXpXpXpXdXdXsXfXfXfXfXfXfXfXfXOX|.jXxXpXfXfXfXfXiXpXpXpXaXaXtXtXtX+X}.! s s s i a y s s ",
"s u > s i i j g l l N oXpXpXpXpXiXiXpXiXiXiXiXiXaXaXaXaXaXaXsXaXsXsX>X>X:X:X:X:X>X>XsX$XiX>X$X$X#X@X%X X X}.! B g > u s s p i s ",
"V D p a i L B.B.L.L.k.k.R.@XiXiXiXtXtXiXtXtX$X#X#X#XtX#X#X#X,X+X Xe.r.a.p.p.p.a.a.4.r.e.*X=Xe.e.e.2.2.2.X. .b.s a g D s s g s s ",
"I P I V P.(.!.Q.K.H.L.k.k.k.E.>XtXiX$X@XyX@X@X@X+X+X@X+X+X+XOX XX.5.4.r.4.4.4.4.4.4.4.4.4.4.4.4.4.4.r.r.r.}.U I C P I I D C I I ",
"C j G V R.)._.(.W.K.F.L.l.l.j.k.A.+X$X@X@X@X@X+X+X+X+XOXOXOX|.>.2.2.3.2.2.2.2.2.2.2.5.5.4.5.5.5.5.2.e.e.:.Z Z D C B C I I I P C ",
"; , C C m R.).(.(.W.K.L.n.l.j.b b b V.'.+X@X@X+XOXOXOXOXOXOX|. Xe.;.1.X.} ( ( ..} } } }  .>. . . .} | ^ h > + p D C B y > B D D ",
"B G I U h ; Z.Q.(.Y.Y.J.L.v.l.l.j.b b c M m '.oXOXOX@XOXoXOXOXoX X>. . .1.X.} } ......( ......} | ^ K I Q P ; B I I P P U U U I ",
"U U C P i @ a V V.T.J.K.K.L.L.l.k.j.n b j.b b k.n V.Q A.~ [.}.}.}.}.|.| | >. .>.>.}  .| { E R A J Q V s s G , * y B G U U P D B ",
"C C s P h * r s B j j k m m L L F F v v k v j I h L l a j D I D   ; i B Z Z Z Z j j V U D # r i B B p j j I > + = s j B V j s s ",
"s p V I g   * i j j j s l l s p j p j j g p D U > t r p s s D U   + y p g g g g j j k I G + @ i p s j j P D > + - j j s s s j j ",
"s s G U i   * i s j g j s j s s p p j j j s G I > @ a s s s D P   * y j j j j j j s s D G + @ r s s j B I P , = - y j s s s s j ",
"s s U U p + = a j j s j j j s s B g s j p B P V * @ y s s s J B @ - u g j j g j j j j J Z + - a j g j s B U u * - y s s j j j j "
};
