/* XPM */
static char *mariores_removebg_preview[] = {
/* columns rows colors chars-per-pixel */
"64 64 253 2 ",
"   c #09161F",
".  c #07161F",
"X  c #1A1013",
"o  c #2B1919",
"O  c #091621",
"+  c #0A1925",
"@  c #0C1D2B",
"#  c #071620",
"$  c #111F2C",
"%  c #0E202E",
"&  c #11212E",
"*  c #0D2334",
"=  c #0E2639",
"-  c #0F2A3E",
";  c #122534",
":  c #112739",
">  c #122A3D",
",  c #192D3D",
"<  c #162837",
"1  c #322B32",
"2  c #291E22",
"3  c #4F1812",
"4  c #741011",
"5  c #56231A",
"6  c #692615",
"7  c #7D281A",
"8  c #4C3231",
"9  c #6A3932",
"0  c #5E1A23",
"q  c #774639",
"w  c #734331",
"e  c #0F2A40",
"r  c #132D42",
"t  c #192E41",
"y  c #163146",
"u  c #1C3244",
"i  c #1B354A",
"p  c #1E394E",
"a  c #173348",
"s  c #1F3B50",
"d  c #1A3357",
"f  c #213A4F",
"g  c #26384A",
"h  c #203B51",
"j  c #263955",
"k  c #313549",
"l  c #2D3A6E",
"z  c #1E336B",
"x  c #713647",
"c  c #613660",
"v  c #254056",
"b  c #26425A",
"n  c #29455D",
"m  c #2A4459",
"M  c #364558",
"N  c #2B4761",
"B  c #2D4B64",
"V  c #2D4A69",
"C  c #314E66",
"Z  c #304F69",
"A  c #3D4C68",
"S  c #33526C",
"D  c #3C556A",
"F  c #365671",
"G  c #385772",
"H  c #375874",
"J  c #3A5A76",
"K  c #3C5C79",
"L  c #38547F",
"P  c #2E4975",
"I  c #4D475E",
"U  c #6F4D4C",
"Y  c #756A58",
"T  c #4A5771",
"R  c #785868",
"E  c #665968",
"W  c #4E6479",
"Q  c #6F6973",
"!  c #971314",
"~  c #8D0E0E",
"^  c #B90708",
"/  c #AC0D0F",
"(  c #AE1D26",
")  c #8E302B",
"_  c #AF2C2B",
"`  c #98221C",
"'  c #CA0708",
"]  c #D90709",
"[  c #D71418",
"{  c #CC1014",
"}  c #EC0B0D",
"|  c #E5090B",
" . c #FC0706",
".. c #FC0708",
"X. c #F40809",
"o. c #E90E12",
"O. c #F30E11",
"+. c #F51214",
"@. c #F71619",
"#. c #EB141C",
"$. c #CE1A23",
"%. c #F61C24",
"&. c #EA1C25",
"*. c #F62425",
"=. c #ED2F35",
"-. c #CA2129",
";. c #88492E",
":. c #884A35",
">. c #97543A",
",. c #8F4F3A",
"<. c #A4583A",
"1. c #942E49",
"2. c #B3324D",
"3. c #A03B73",
"4. c #CD3544",
"5. c #985742",
"6. c #8C544F",
"7. c #A65C44",
"8. c #AD4D51",
"9. c #956758",
"0. c #AA6349",
"q. c #A66B57",
"w. c #B36C56",
"e. c #B17257",
"r. c #AC5769",
"t. c #8B6C6F",
"y. c #B27369",
"u. c #8D4E63",
"i. c #EE494B",
"p. c #C97258",
"a. c #C67868",
"s. c #EC7374",
"d. c #E14D59",
"f. c #F0E138",
"g. c #918472",
"h. c #B18473",
"j. c #B2B263",
"k. c #C6846A",
"l. c #D7886C",
"z. c #D98D74",
"x. c #DB9578",
"c. c #CD9273",
"v. c #E79A79",
"b. c #ED8D70",
"n. c #F6A47E",
"m. c #E7A37B",
"M. c #EEE563",
"N. c #1C3899",
"B. c #243D9A",
"V. c #3A3D90",
"C. c #1E3DA9",
"Z. c #1C3EB2",
"A. c #223FA6",
"S. c #395588",
"D. c #2A429A",
"F. c #334E93",
"G. c #1E42BB",
"H. c #1E41B4",
"J. c #1D40AE",
"K. c #2643A9",
"L. c #2143BB",
"P. c #2444B6",
"I. c #3651AD",
"U. c #33689E",
"Y. c #4D5192",
"T. c #576E8B",
"R. c #6D7986",
"E. c #5058AD",
"W. c #5A75B5",
"Q. c #7661AB",
"!. c #234AC4",
"~. c #244DCA",
"^. c #2548C2",
"/. c #244FD0",
"(. c #2551D5",
"). c #2554DC",
"_. c #2A56DB",
"`. c #2F54CE",
"'. c #2A5AE5",
"]. c #2B5CEC",
"[. c #2757E4",
"{. c #305EEA",
"}. c #2C5EF1",
"|. c #2E61F4",
" X c #2F62F8",
".X c #3264F5",
"XX c #3265FA",
"oX c #3B6CFC",
"OX c #3769FB",
"+X c #3765F2",
"@X c #1F46C2",
"#X c #4359C4",
"$X c #4373FC",
"%X c #4977F8",
"&X c #4B76ED",
"*X c #496ECD",
"=X c #8C7A87",
"-X c #806DA4",
";X c #768596",
":X c #7387A7",
">X c #6094AD",
",X c #3C87C0",
"<X c #7298D1",
"1X c #5C90E5",
"2X c #8B8D9B",
"3X c #AE948E",
"4X c #9797A5",
"5X c #8994A8",
"6X c #9BA4B8",
"7X c #A8A8B9",
"8X c #AEA1AD",
"9X c #EE948F",
"0X c #F7AA85",
"qX c #FBB58C",
"wX c #FBBB93",
"eX c #EBAB8C",
"rX c #EC9CA2",
"tX c #EEA8AD",
"yX c #D1A49B",
"uX c #FCC699",
"iX c #EBC89E",
"pX c #FDD7A6",
"aX c #F3CBAB",
"sX c #FDE4B6",
"dX c #D6CDA8",
"fX c #A4ADC5",
"gX c #A8B4C9",
"hX c #B7BAC9",
"jX c #ABB6D2",
"kX c #B1BCD6",
"lX c #9FABC5",
"zX c #EBBEC5",
"xX c #B9C4D6",
"cX c #B2C9D3",
"vX c #B8C7E6",
"bX c #9BC8E7",
"nX c #C6C8D5",
"mX c #CDD2DA",
"MX c #EECDCB",
"NX c #CBD4E7",
"BX c #D5DBE9",
"VX c #CAD2E8",
"CX c #DBE1ED",
"ZX c #DCE4F4",
"AX c #E5ECF6",
"SX c #ECF4FB",
"DX c #ECF4FB",
"FX c #F5F9FD",
"GX c #FCFDFE",
"HX c #F2F6FA",
"JX c #EFE6EA",
"KX c #F2DBE0",
"LX c #B7C2A0",
/* pixels */
"+ * - % . * = * = = * @ O = > - - * * * - - - a = = a p s s J K O ; i h p h h h f p B S u % y i p s h h n K u % * : - @ + * > - ",
"@ @ % + @ @ @ + @ @ @ + + % @ % % % + + @ % % % + + = h h s B K @ = i h h h p h v f v B f + > a s h v p p K u + + % @ O + @ * @ ",
"K K K , S K K n b K K K K K B F K J S B K K Z Z , + = i s s K K @ > s v v T T m g f s B C + > a p p p p v K u B K K B b G K K C ",
"C n K ; r h Z H F b j b n F H F b b J K B n J K , % r i s N K K @ a hXAXAXFXHXDXcX5XT.W C % = y f v p v J S ; > v v S H n b n K ",
"h j K ; % a s h j h f h s s s p p s b N s s N T , - y f f m H K . 2XZXNXCXCXCXAXSXHXGXAX5X& * - h s h v K B ; @ y s s B h h h n ",
"p C K ; = - a p s h h p p p h h p i y p s i s S., - u p i p n :X2XCXCXxXBXcXNXBXmXAXDXHXGXmXv a p h p v S K u = - p y s h p p p ",
"* p V ; + = - r a y r r * r a a - * - r y e u I x x x c g y T.mXNXCXJX7X8X2X7XhXVXBXNXhXmXSX;Xs v v p p v J u * - - - e a - * r ",
". # * + O O @ % # @ + # . @ * * % . + * g 1.=.%.*.%.i.s.s.1.Q =Xt.2X4XR.E Q Q Q 2X8XcXxXZXAX;Xp p p p f p H u . * * + @ * @ . @ ",
"; n n n n n , O   O O O . O . . O O O x =.%.@.@.%.tXtXzXrXrXs.r.t.2XnXJXhX-X2X2X2X7XBXSXAXZXD i s s s p s H u m n h , f n n v , ",
"@ b S K C S K f + ; i > % + + + O 2 2.=.@.@.@.@.=.SX9Xs.d.9XrXd.r.4XhXBXJXCXVXVXZXAXAXAXBXcX> a i p p p N S ; i Z S S K S H K Z ",
"@ r h S n h S J u S b p p y u g , 8.%.+.+.@.@.%.%.KXs.rXHXGXs.s.&.6.=X8XnXnXBXBXCXZXBXVXmXW = = - y - e a s , : i v S b s v B K ",
"+ - s s h h s J N F v f p i r p r.&.#.O.O.+.@.@.+.i.rXzXKXMXtXi.%.-._ 4.a.8X8X7XhXhXhXkX5XO @ . # % . % + % + % - p p f s p Z S ",
"O = a h h h f J N S h h h h p R =.O.O.O.+.+.+.+.+.+.=.i.=.=.[ / / ! ~ ~ ~ _ JXCXmXmXnX7XS n S S Z S n p f &   O @ y f h s p G B ",
"@ e t h f h s K s K n s h h I 4.#.o.o.O.+.+.+.+.O.@.%.[ ( ) ) ) 3 4 ~ ~ ~ ~ 8XhXmXCXAXxXN N S K K K K F K F ; + @ ; p h s h n K ",
"+ = r s h h n K r Z s s f f r.&.o.} o.o.} } O.#.-.! ~ 6.q.q.e.q 8 3 4 ~ ~ ^ / ! ) 1.R.C h f h h n K H b v H u ; + p i p s s v S ",
"# @ e s f h h K t J j h h M 4.[ | | } } ] o.#.( X o 2 o 9.k.c.9.y.w.4 ~ ' X. . ...] g p f s h s p b b s s H j > @ t + u s s s Z ",
"# @ - a h i p J p K S n f u.$.[ ] ] ] ] ] [ _ 8 U k.h.y.e.uXuXiXbXaX0.' X. . . .X.( p h h h h h h h h h Z K , a % O + O i h n K ",
"@ = > r a = r b n S v M r.4.{ { ] ' ' ' _ >.q.e.x.LXnXHXaXuXpXiX>XcXuXb.s.=. . . .9 h p h h h h s h p h B S * a > = * # u h S K ",
". . O @ * + * % < v M r.4.-.^ ' ^ ^ ~ 9 q.h.z.qXuX<X,X<XDXaXpXuXyXuXpXsXsXsXs. .} k v v i h h i f s h h s F > a e - - @ a Z K N ",
"; V N C Z N N : Z n I 2._ / / / / ~ 4 5 k.0XwXuXpX>XD U.vXMXwXqXuXpXsXsXsXpXsX*.( h h n i p p i s h h h s n f r e e - % u j H J ",
"% s h n B h Z % s S W 2.( / ( _ 7 5 6 7 ) b.uXuXuXdX>X,XVXaX0Xv.0XwXuXuXuXuXaX&.9 s s s p i a i h h s s s b h y - e e > % f n K ",
"% - y p p v K O = s v 6._ m.n.n.0X5.6 6 6 <.uXuXc.1 U Y 9.Y 9 e.c.v.n.0Xn.eXy.o.k j s a i n : i a p p p i Z v a e e e e + < b K ",
"# = - y y a Z   % - s v h.n.b.m.p.l.5.6 ) x.wXwXv.1 1 8 8 8 8 1 9 9.y.y.9.U y.( t a e e - p = - - y > - - a p p r e e - * O < Z ",
"# # * + + + = . * i s v Y n.uXn.n.l.l.q.;.0XqXqX0Xk.q 8 8 2 2 1 & 2 X o 8 c.9X0 # * * @ = % * = % O # * @ %   , r i = < r > O O ",
"n i , v n n n + * p h h v h.uXuXuXn.b.x.9Xv.0X0XqXqX0X0Xv.q.U 9.9.U =Xt.z.qXi.I m m m , , v n n n v < b n v , n n N N h s Z n p ",
"S J S K S n K % - y p h v v 9.0XuXwXqXl.a.v.x.v.0X0X0XqXqXqXh.Q Q R x >.wXb._ S v b H S Z K H S K H % n B K K H b n K K J C S K ",
"n J Z v h v K % - - i p i h b W U 9.>.6 9 a.l.l.b.v.n.n.0XqXeX8.8.r.p.9Xn.+.x v h h b H S b v h K n O = i n H v f h b B n s h b ",
"p s h p h m J . * - - y i - i F # = 3 3 o 3 >.8.p.p.l.b.v.0X0X0Xx.x.0XeX2.&.g p h h h h p h h Z K v O % a s f f f s p h s h s f ",
"h h h p v S B . + % = * % # - > . + k ` ^ o.X.X.] { _ 0.p.a.z.v.z.9Xs.*.$.c D.Y Y m h h s h h h K S O = p f f p h p f f p h s h ",
"h s i a p B S % i v v m m v 1 0 ~ { X........... . ...} -.c E.Q.-X-Xr.#.&.3.&X*X;Xj.h h h h h s K H @ y f f p M E R E M h h p h ",
"y a = = a h H % a W 7XCXAXJXrX*.X...............X. . ...+.O.1.#X$X$X1X5X<X%XoX1X&XW.V h s h h s N v + e p f R e.p.p.p.h.t.u t p ",
"= % + + * > W 4XBXFXGXGXGXDXDXJXi............. . .X.X. .......[ V.&Xj.f.M.LXoXoX$X1X<Xv h h p p F Z . % u Q 6.<.<.0.p.l.a.t.k * ",
", % : u T.BXAXFXHXGXGXGXGXGXFXSXJX=..... .X.X.] ' ^ ' ' |  .....2.^.q.f.f.M.$XoXoX$X%XW.I.I.U.S.S.F % i T R x ;.5.7.w.k.a.y.3X, ",
"H b T.vXAXSXFXFXFXGXGXGXGXGXGXFXAX9XX.| ' ^ ! ~ ~ ^ ^ ' ] | | } Q.+X`.Y.R.*XOXXX}.].+XOXoXoXoX$X%X1X*X&X}.E.9 U 6.5.7.7.q.5.yXW ",
"S ;XvXZXZXSXSXFXGXGXGXGXGXGXGXGXnXyX! 4 8 < v l ~ ^ ' ' ] ] ] 3. XXX+X{.'..XOX X].}. XXXoXoX$X$X$X$X$X$X+X{.Y.q 9 ,.,.>.>.5.c.F ",
"v :XvXvXvXBXZXSXFXGXGXGXGXGXGXGXnXj @ @ + O % > k ~ / ^ / 1.E.].{. XXXXXoXOXXX].}.}. XXXOXOXoXoX$X$X$X$X%X{.+Xc ;.:.:.,.>.0.Y v ",
"s T.cXjXkXkXkXVXAXSXSXSXZXAXFXFX6Xf f j v < u v i Y.V.V.P.).'.'.].|.|..XXX.X].}. XXXXX X X X|.|.XXXXOX$XOXOX}.#Xq ;.;.;.;.k.g g ",
"p B lXlXjXgXjXkXVXZXZXlX4XfXZXDX2Xj D G K K K S P J W.B.P.).).'.'.].].}.}..X XXXXXXX X}.].[.).).'.{.{.}.|. X}.{.U ;.;.;.,.Y p p ",
"= y T 6XfXgX6XjXxXNXZXxX6X6XBXAXW O f v n C C f v C W.E.K.~.).).].].|.|.}.|. XXXXX|.}.'.).).@X~./.(.[.[.'.'.[.'.Y ;.;.;.Y h p u ",
"% * * S :XlX6XlXgXxXZXFXxXxXNXcX+   : p p p v p f u W.E.K.L.).).].].].}.}.|.XX X}.'.[.).(.~.K.J.Z.Z.^.~.~./.(.`.U ;.q ,.1 - * ; ",
". # O % + I ;X;X:X4XfX6X4XgXgXD     ; f h h h h h s T E.I.G.~.).).[.].].}.}.}.'.).).(./.!.P.D.D.B.C.J.J.H.H.G.I.;.;.w k.+ %   + ",
"S v Z K K G n K J > K T.W T.W J     ; p h p f h s s s E.I.J.G.!.).).).[.)._.(././.~.!.P.I.P S S.F.F.D.B.K.J.J.I 7 w >.Q J J J J ",
"K H Z b v H K Z H @ i B J S B Z & + & p h h s h s s s Y.I.K.K.J.G.@X!.~.L.!.!.L.G.J.D.H K H J B v b K Y.F.D.I w w q Y D n m m S ",
"b B s s p v v n b @ r p v h C n u & + , p s s f s s b I.J.N.N.B.D.D.B.J.K.K.K.D.z d s s B Z h s h p f S K , 1 M m M B v s h h h ",
"a i i h p p p n n % a p s p N J @ - * O % y a p h h S.^.H.C.C.N.N.N.B.B.D.D.F.M   = p p s s f h h p h n J & % , s s s s , s s s ",
"* - y y r - r i S + > u p r i C * r - * g 1 j V F.P.Z.Z.Z.Z.C.C.C.J.C.C.C.K.S.n   % p s s s s h h h h h S % . > - a y , - y y y ",
". + * * % + % = @   O @ * @ + : % a M E U x L Z.Z.Z.@XZ.Z.Z.Z.H.J.J.J.Z.A.F.L i + = i p s h h h h h h h B & . + + % * * % = % . ",
". . . . . . . .   O . . . . . . ; p h.q.5.>.u.G.Z.Z.Z.G.G.G.G.P.J.J.H.H.K.V K h * - y p h s p h h p p v F % . . . . . . . . . . ",
"% #     % % % % + .     + %     ; i g.k.<.0.y.*X).!.G.^.L.L.L.G.G.H.P.P.P p Z n * r p h f s s h h p v J B a m % O   . . & @   . ",
"y : ; % u i i y > = % ; a > %   * , W c.>.0.e.E.oX.X{.(.~.L.@XL.G.P.P.P s f Z m * a p s s h h s h h h F B v K p u : + u p u ; @ ",
"h p p f h h v p h p p p s f +   & u C c.:.7.0.t.{.OX.X.X].).(.(.~.I.z f s b K u O - i s h h h f h s h b K v H S v i a h h s p a ",
"h s f f p p i a p p p s f p +   & u p g.q 7.0.e.Y..X.X].].'.)./.l e a h s s S a O = y h h s p s s s s n K v b K n f h p p h s p ",
"f y p f p i h p a i i h p p +   + * - ;Xq.>.7.e.y.Y.'.].(.(.I.P + @ r d s s Z n . @ r s f f a f h s p S B y Z S p p s p a a f s ",
"f u , p a p f f p h p f v p %   , h r g.c.>.7.0.p.w.R `._.F.H K # @ e s s n K n + > i i p y p p p h p S B < K v p , i p p p i h ",
"b Z p a i p p v v h v p f p , . u C p Q m.w <.0.w.w.0.9.S.S T K + - y p s n F n * a s v < a a p h h h v F , K p a f B s f p s s ",
"K S K b K K K K K n n K n m v % y H b W m.;.>.<.0.0.<.0.j j F F + - - - a = v b @ - r b : y = - i i - p S v K K n H J K B n H K ",
"n v Z b n n n n n Z K S n S H y > S J D x.,.;.;.>.<.<.7.v f n n # + * = * # @ ; . @ , g * * # * - = @ * a p v B n v n K J K S n ",
"; : n n p + i b p y u n n b v n n , ; > g.q w w ;.>.>.U f p n Z & y ; u , ; ; u u u : ; & ; u , ; ; * u u , + g N N h y u j B N ",
"v Z K K g % S H F n K H J J H K J J B S R.U 8 w w w 8 f f f F K * B S H H Z B K J F G B u > S S B b S H J F : v H K H H K K K K ",
"K H b F p % a v G F B h h H K S s n B C b p v D 1 < > a f n F Z O - i h Z K S n f s F K f # r f S K n s s Z ; ; a b B K K S B v ",
"n n h H g * e p v v h h h v v h s h h h s s s K , - - a s B K n . % > p p v v p h h n K N . > p h v s h v H , O = h h v b h h h ",
"h p b J p # = p p f h p h h s s h h s s s s n K , * - p h s Z K # + y p p h f p h h h K Z . * i h h h h F B , + = s h h h h h h ",
"h h Z K p . * i p s h h p h h h h s s s s s Z J = % i s s s B H + * a p p p v p h h h B C + @ r h p h v H S < = e a h p h p h s ",
"h h K K g O = a s h h h h h s h s s s s s m H b % % y s s s S h % - y p v v p p h h h S m + - a h h h s v K u * - a h h h h h h "
};
