/* XPM */
static char *twompres_removebg_preview[] = {
/* columns rows colors chars-per-pixel */
"64 64 241 2 ",
"   c #010202",
".  c #070909",
"X  c #0B0C0C",
"o  c #0D1010",
"O  c #09161F",
"+  c #07151E",
"@  c #191C1C",
"#  c #141919",
"$  c #150E0F",
"%  c #081621",
"&  c #0A1925",
"*  c #0B1C2A",
"=  c #071520",
"-  c #181D26",
";  c #141E28",
":  c #191F29",
">  c #151D26",
",  c #0C1F30",
"<  c #0D202E",
"1  c #1C232C",
"2  c #1A2528",
"3  c #0D2234",
"4  c #0E2639",
"5  c #0F293E",
"6  c #122534",
"7  c #12293C",
"8  c #1A2D3D",
"9  c #172835",
"0  c #1C303D",
"q  c #232525",
"w  c #20262E",
"e  c #222B2D",
"r  c #262B2B",
"t  c #28302E",
"y  c #252E32",
"u  c #282F35",
"i  c #212730",
"p  c #263034",
"a  c #2A3235",
"s  c #2C363B",
"d  c #2E3A3C",
"f  c #25343A",
"g  c #323B3D",
"h  c #3B3E3E",
"j  c #313739",
"k  c #362831",
"l  c #1D1D1C",
"z  c #640A10",
"x  c #44272A",
"c  c #5E1C20",
"v  c #3B413F",
"b  c #35413F",
"n  c #132D42",
"m  c #1B2E41",
"M  c #163146",
"N  c #1B3245",
"B  c #1B354A",
"V  c #1E394E",
"C  c #173348",
"Z  c #1F3A50",
"A  c #0F2A40",
"S  c #203A4F",
"D  c #283946",
"F  c #343E41",
"G  c #383E44",
"H  c #203B51",
"J  c #283F53",
"K  c #354244",
"L  c #3A4344",
"P  c #354649",
"I  c #3D4748",
"U  c #3C4A4B",
"Y  c #394949",
"T  c #254056",
"R  c #2A4254",
"E  c #25425A",
"W  c #2A455C",
"Q  c #2F495D",
"!  c #3A4C52",
"~  c #354A5A",
"^  c #3D5258",
"/  c #2F4045",
"(  c #2C4A63",
")  c #2D4B65",
"_  c #304F69",
"`  c #324E64",
"'  c #33526C",
"]  c #3B5667",
"[  c #365671",
"{  c #3A5A76",
"}  c #3C5D79",
"|  c #375873",
" . c #444C4B",
".. c #444948",
"X. c #47514E",
"o. c #484B54",
"O. c #445253",
"+. c #4C5453",
"@. c #4D5956",
"#. c #4D5C5B",
"$. c #46555B",
"%. c #515956",
"&. c #52555B",
"*. c #535C5A",
"=. c #595C5B",
"-. c #4B605E",
";. c #54615D",
":. c #59625E",
">. c #485A67",
",. c #575A64",
"<. c #435F76",
"1. c #545F71",
"2. c #4D6363",
"3. c #4D656A",
"4. c #556463",
"5. c #5B6563",
"6. c #5E6966",
"7. c #546C6C",
"8. c #5C6C6B",
"9. c #586669",
"0. c #5B706E",
"q. c #486478",
"w. c #566975",
"e. c #5C7473",
"r. c #587377",
"t. c #636464",
"y. c #616B67",
"u. c #626D6B",
"i. c #6A6C6B",
"p. c #61666B",
"a. c #65716D",
"s. c #69726F",
"d. c #646E70",
"f. c #666D78",
"g. c #657372",
"h. c #6A7573",
"j. c #6D7976",
"k. c #6D757A",
"l. c #6D7B7A",
"z. c #647A7B",
"x. c #727473",
"c. c #717B77",
"v. c #727D7B",
"b. c #7B7D7C",
"n. c #757779",
"m. c #71726F",
"M. c #61615F",
"N. c #A60E17",
"B. c #B0535A",
"V. c #9F525C",
"C. c #CD7277",
"Z. c #75817D",
"A. c #79837F",
"S. c #82827F",
"D. c #577483",
"F. c #637C82",
"G. c #667986",
"H. c #777C84",
"J. c #7D7994",
"K. c #6D8283",
"L. c #68858A",
"P. c #748482",
"I. c #7B8482",
"U. c #7D8A86",
"Y. c #7D8D8B",
"T. c #758A8B",
"R. c #6C8B94",
"E. c #788C92",
"W. c #7C9394",
"Q. c #789599",
"!. c #7B908F",
"~. c #799BA2",
"^. c #7EA0A4",
"/. c #838D8A",
"(. c #8B8C8B",
"). c #838585",
"_. c #84918D",
"`. c #88938F",
"'. c #869591",
"]. c #8A9693",
"[. c #8D9A96",
"{. c #8E9C99",
"}. c #8E979D",
"|. c #929695",
" X c #939D9A",
".X c #97999A",
"XX c #8B8E92",
"oX c #93A19D",
"OX c #869CA2",
"+X c #929DA6",
"@X c #8AABAE",
"#X c #85A6A9",
"$X c #97A5A1",
"%X c #9AA6A2",
"&X c #9CAAA5",
"*X c #9FACAA",
"=X c #95A5AC",
"-X c #8EB1B4",
";X c #90AFB5",
":X c #A3A4A3",
">X c #A3ADAA",
",X c #ACADAB",
"<X c #A8A8A7",
"1X c #A5B1AE",
"2X c #B1B1AF",
"3X c #ACB3B3",
"4X c #AAB9B5",
"5X c #ADBCB9",
"6X c #A7B4B3",
"7X c #B4B5B4",
"8X c #B4BCBB",
"9X c #BBBCBC",
"0X c #B2B7B8",
"qX c #A2ABB3",
"wX c #B7C1BE",
"eX c #BCBCC3",
"rX c #BDC3C2",
"tX c #BAC8C4",
"yX c #B7CED4",
"uX c #C3C4C4",
"iX c #CBCBCC",
"pX c #C4C9C9",
"aX c #C6D0CD",
"sX c #C9CED2",
"dX c #CED4D4",
"fX c #CAD8D7",
"gX c #D3D3D4",
"hX c #D6D7D8",
"jX c #D5DADA",
"kX c #DBDCDD",
"lX c #D8D7D8",
"zX c #E8DCDD",
"xX c #DEE0DF",
"cX c #DDDEE1",
"vX c #E3E4E4",
"bX c #E5E9EA",
"nX c #EAEBEB",
"mX c #E6E7E8",
"MX c #F4F6F6",
"NX c #EEF0F1",
"BX c #DEE0E0",
/* pixels */
"* 3 5 , = , 4 , 5 5 , , % 4 A A A 4 , 3 m =XB C 4 3 C H S H | E.f.6 C V V H H H H J qX<.B , A V H H H V W } M * 3 4 A * % , n A ",
"& * , & & * * & * * & * * * * , , * & * b.mX3X; & & 4 Z H H >.uXnXw.V H H V H V H n.mXsXH & 5 B H V H H Z { m * * ; , & & & , , ",
"{ } { 8 ' } } W J } } } } } ( ' } } ' ,.7XkXmXqX8 & 4 C S ~ S.zXvXmX1.H S H H H 5.2XvXmXqX& 4 B H H H V J } m ( } } ) E | } { _ ",
"_ E } 6 n J ) | [ J J E ( [ [ [ J E w.m.gXgXkXnXk.* n V ~ f.<XlXhXvXcX] S H H >.n.gXkXkXnXG.4 n H H H H { ' 9 A Z J _ | ( H ( { ",
"H H } 6 * C S H H H V V B V Z Z S ! i.:XgXiXiXvXmXw.M J i.x.iXgXgXhXnXsXQ S $.m..XlXlXlXvXbX$.7 H V H H } ) 6 * n H H ( H H H W ",
"S _ } 6 m S m S H H V V B Z Z Z J t.i.uXiXiXiXgXvXgX1.,.i.|.iXiXiXsXkXzX0X` p.m.9XgXgXiXgXmXjXQ H H S H _ } m 4 n S J Q V B B V ",
", V ( 6 D ]..X+XOXG.>.B 6 n n B &.M.(.uXuXuXuXuXgXgX}.M.i.7XuXuXuXuXiXhXsXn.i.S.iXuXiXiXpXhXvXeXJ V V S ( D.G.E.3XkXNX~ C n , n ",
"O % 3 & % /.H.).(.<XuXgX8X}.w.,.=.=.<X9X7X9X7X8XeXiXXXM.n.9XeX9X9XeXeXiXuXx.M.:X9X9XeX9X9XuXgXhX=XH.OX2XuXhXzXNXMXNXqX* , * = , ",
"6 W W W E L.U.b.S.).Q.{.>X7X7Xn.@.*.k.k.x.k.h.k.n.v.d.&.u.n.l.l.n.H.H.n.H.5.*.v.H.v.H.v.Z.Z.U. X+X,XpXhXmXnXnXnXnXgXG.S J W J m ",
"* E ' { _ q.#Xv.x.n.V.).Z.*.L Y K K b K g K F G K K K K K K K / G G L K K K K L F F F F P b L U O.&.XXdXxXmXmXmXcX<Xq.} ' | } _ ",
"* A Z ' E J ~.W.m.i.x.=.g g s F P b b b L K g g d d g g G g d b F g F g g g g g s F P L P P Y U G g  .0.7XkXkXzX2X|._ J H H ( } ",
"% 5 Z V Z Z r.OXH.p.=.u s s ..H.$X*X*XwX5XtX4XY.U g g d g d b f g d g g g g s g 6.{.1X5XwXwXwXwX4Xl.g K u.9XgX9X.Xk.H H H H _ _ ",
"% 4 M Z V H ] Q.W.u.a s s b ;.I.Y.`.[.`.oXoXwXaX5Xk.K K b b b b F K G F g g @.j.]. XoXoXoX$XoX1XtXtXh.F U f.9X.X.X~ H H H H [ ) ",
"* A M Z S H H Q.E.8.y j y O.8.6.Z.Z.Z.Z.Z.A.Y.*XtXtXtXwXwXwXwXwX4X4X1X*X&X$X$X XU.Y.U.Y.Y.U.U.A.&XwX$Xg F @.).|.).6 V H H H ( } ",
"& 5 n H H Z W L.R.2.y f y 2.8.8.a.a.Z.U.{.'._._.'.].'.'.`.'.!.U.Y./.Y.Y./.Y.U.U.I.A._.{.oX]._.U.{.6X&XK G O.x.(.,.D C H H H H _ ",
"% * 5 V Z H Z q.R.! a f 1 2.8.6.;.a.oXwXwXyX5XoXY.U.P.l.Z.Z.Z.Z.v.v.v.H.Z.P.P.v.I.oXwXtXtXtX&X!.{.1X&XL g ..p.).D m & m V H H _ ",
"+ * 5 M S B V } G.Y p f i 2.0.6.4.0.+.L Y 4.'.tX$XA.A.Z.Z.Z.Z.Z.Z.l.j.Z.Z.Z.Z.Z.{.Z.O.L b -.$X{.{.1XoXY F I ,.).6 & & % N H W } ",
"& 4 5 n n 7 D >.o.s y a 1 3.0.6.:.L O.@.@.Y Y 4.wXW.A.Z.Z.Z.0.Z.Z.j.Z.j.j.j.s.Y.X.b U @.-.@.^ U.{.>XoXL F K n.hXqXS , % N H ' } ",
"% % % * * D &.&.o.s y a w 2.8.4.@.*.:.5.p.8.#.P Z.&XU.Z.Z.Z.Z.Z.v.l.j.Z.j.j.Z.:.b ;.u.a.y.:.;.6.{.*X{.K F L n.gXxXhXw.* N _ } ( ",
"6 ) ( ` 1.i.,.,.&.F e y 1 2.0.6.;.:.6.5.d.a.a.;.b oXoXA.Z.Z.0.Z.v.v.Z.h.h.j.Z.b y.j.Z.Z.s.Z.Z.g.].>X].h F K h.uXkXmXnX.XD H | | ",
"* B ^ H.V.Z.j.d.4.F i y 2 2.0.6.6.5.u.a.h.u.u.8.-.b 6X'.Y.A.Z.Z.Z.c.v.h.h.Z.v b h.Z.Z.A.Z.s.Z.Z._.>X[.K j L u.<X7XuXzXNXhX<.J } ",
", 1.U.v.L.L.z.u.4.d y p 1 2.0.y.y.6.a.a.j.g.I s 2 o -.4XY.A.Z.Z.Z.j.j.a.Z.;.# # b e.A.Z.s.Z.s.h._.>X[.K g L p.<X2X7X9XuXgXmXOXD.",
"w./.I.v.l.l.h.d.4.d p p 1 2.8.0.s.a.a.s.h.,.r .     # W.&XU.A.A.Z.Z.h.Z.Z.@     . e 7.Z.Z.s.Z.h._.>X[.b j L 8.<X2X7X9X9XuXiXsX=X",
"; F.#XT.Z.k.k.u.4.b p a 1 2.8.0.h.a.a.h.l. ..     . . b wX&X[._.U.U.Y._.v .         b Z.Z.Z.h.h.Y.&X[.b F L p.:X2X7XeXeX,XXX&.* ",
"W N <.@X;X~.H.d.4.d y y 2 3.0.u.h.a.s.h.P.g   . b.eXJ.- 7.wXwX*XoX&XoX:.# H.uX(..   e g.Z.v.j.h./.>X].G j G t.<X2X<X(.i.9.<.W S ",
"' { ' q.R.@X#XQ.G.K p y 1 2.0.8.a.a.a.Z.Y.G   h kXMXNXJ.# 4.6XtXtX&X+.# h.nXMXMX..  q a.I.Z.j.h./.>X].F F L 9.b.t.=.=.9.<.) ' { ",
"E { _ T H q.~.Q.E.! p y 1 2.0.6.a.u.s.Z._.P.G +.fXvXC.B.u 2 Y 4.-.j @ r B.C.zXMX=.t ;.Z._.Z.h.h./.>X].F j K O.X.+.&.~ _ E S H E ",
"Z V Z Z H J <.&.$.D p u 2 -.0.0.a.6.;.6.j.'.6X8.yXB.N.N.z 2 d P b r r z N.N.B.uXX._._./.Z.a.h.h._.&X].F F I ,.).).H.H H H S S S ",
"Z V S S ~ >.&.o.o.d y p 1 3.0.6.u.y.;.;.;.@.s.{.~.V.z   $  .&.@.;.u.%.l   z c n.Z.a.:.:.u.6.a.h./.&X{.G F G f.iXjXcXpX>.H H H H ",
"Z Z B >.p.p.d.8.4.K p y 1 2.0.0.a.a.s.u.u.:.;.y.T.G.x @ j u.y.a.a.s.c.X.q x t.A.y.y.j.Z.Z.j.h.h._.>X{.g F K p.<XuXhXnXmXE.H H H ",
"M E f.H.b.k.h.u.4.F y y 1 7.0.6.a.a.h.s.a.y.a.y.5.k.k.u.n.g.u.a.a.a.h.Z.j.c.Z.u.a.a.s.a.h.Z.j.h._.>XoXg F G t.:X,X7XeXgXbXeX~ N ",
"^ I.I.v.n.k.k.a.4.F y y 1 3.0.6.y.y.+.v b j X.:.5.5.6.y.y.y.a.s.s.a.y.y.a.a.u.u.y.@.j b b +.j.j._.>X{.F F K t.:X,X7X9X9XeXgXgXw.",
"3.OXT.H.l.l.h.d.4.F p p 2 2.0.6.6.:.s.oX|.A...g X.:.y.y.a.a.s.s.s.s.s.s.a.a.y.;.v X.)..X.Xy.@.Z._.&X{.b j G 5.:X,X7X7X9XuX9X%Xw.",
"} ' @X-XW.l.z.d.4.K y y 1 3.0.4.y.v .XdXpXwX).I.+.j b  .;.y.s.s.h.s.a.:.X.v b ;./.(.wXaXjX.Xt s._.>X{.h F I p.:X,X7X2X|.x.5.<.} ",
"' } ( D.-X-X~.H.4.F p y 1 2.0.;.:.r >XMXNXbX3XrXwX,XZ. .v v j j j b v  .X.A.,XtXpX3XbXNXMX:X@ 6._.&X'.g j G 5.:X(.x.=.*.$.H H | ",
"Z Z Z Z D.Q.OX~.Q.! p a 2 2.0.;.:.# o ../.0X0XbXNXbXdX>XuXwX4X[.`.7XwXuX,XgXnXNXbX0X3X).I X o ;._.&X].g j G X.o.&.%.*.~ H H H H ",
"Z Z Z ( ' 8 D.G.D.P p y 1 2.0.;.:.X         . @ v ;.x.c.:X8XrX3X>XrX0X:XZ.s.%.h @ .         X X._.&X].h d K  .o.o.o.J H H H H H ",
"Z Z V [ ) J &.o.o.d p y 2 2.0.;.:.X                                                         . X._.&X`.b j K i.eXeXeXG.H H H S H ",
"n n C ) w.,.,.,.&.F p y 1 2.0.;.%.X                 . o # q r q q q q # o X .               X X./.>X].g j L 5.9XgXcXmXqXH Z H C ",
"& 6 R k.n.n.k.d.4.F y y 2 -.7.#.%.X   . h t.b.>XiXjXjX7XjXkXlXwX8XlXjXjX3XgXlXpX,Xb.u.v X   X +._.oX`.g s G 9.:X<XeXgXmXkX1.6 , ",
"; ,.U.H.l.l.h.u.4.g p y 2 2.8.;.t.l (.dXkXkX,X0X9X>X|.c.oX:X&XoXoX>X>XoXA.|.>XwX9X<XkXvXkX|.# :._.&X].b j G 5..X<X7X7X9XiXzX|.< ",
"R.Y.H.v.l.k.h.d.4./ y y 1 2.0.-.j.a uXaXwXoXx.c.A._._._.Z.s.:.;.;.y.j.U.[.oXoX/.Z.m.oXwXdXaXq Z._.&X_.g j G 5.:X<X2X7X9X9XuXpX+X",
"<.~.@X'.F.l.h.0.4.d y y 1 2.0.@.U.I ].].A.s.s.Z.u.%.L v v ..v v v ....v L  .*.s.S.Z.j.S.oX[.t [.U.%X_.K s g 5.:X<X7X7X7X.XA.>.] ",
"E ) | @X;XOXP.d.4.b p e 1 2.0.O.Z.&XS.A./.Z.:.+.@.*.%.%.%.%.;.%.;.%.;.%.%.@.+.@.X.;.Z.`.A.Z.A.&XZ.&X_.g s h ,.:X<X.Xb.:.=.~ S S ",
"C B V R R.-X-X#XL.Y t y e 4.8.%. .&XwX&XA.%.;.;.:.:.6.6.6.y.y.y.6.y.y.y.:.:.:.:.%.X.U a.oX&X&Xa.Z.oX[.b j F &.m.=.+.*.$.B V H S ",
"3 5 n M M >.^.@X^.^ p p e -.8.-.b b X.%.@.;.;.:.6.y.y.u.u.u.y.u.y.u.u.u.u.a.y.6.:.;. . ...X.v @.I.%X].h j F I  .X.+.P 7 n n M M ",
"% % 4 3 < % 0 L.^.^ p p 2 3.0.-.X.X.X.@.;.:.y.y.u.u.a.s.a.u.a.g.s.a.a.a.s.a.a.a.y.:.;.@.X. .X.:.I.%X].K s F ......6 4 3 * 4 < % ",
"+ % O + + + % & 2./ p f e 7.e.;.;.;.:.y.y.y.y.u.a.a.a.a.y.u.u.u.a.a.y.u.a.a.a.y.u.a.:.:.;.6.:.a.I.oX_.g F F &.,.O O O O O O O % ",
"* % + O * * * 0 4.P f u 1 7.g.7.5.6.a.a.a.a.a.a.:.;.*.;.;.*.4.4.4.4.4.6.4.7.4.8.a.a.a.a.a.a.u.a.Z.{.A.j s L u.<XD O = = ; * % = ",
"M 7 6 * N B V $.4.O.f y 2 3.e.9.5.8.6.a.a.a.a.4.@.@.-.-.2.9.7.7.7.e.r.r.e.r.e.0.0.a.a.a.a.a.y.:.a.v.*.s j b I.9XH.6 & M V N 6 * ",
"Z S V S Z Z H 8.5.>.s a 2 d L.Z.0.7.7.4.4.2.-.@.I e e e y f f s s f s f d d D L.Z.e.0.7.4.-.-.#.*.I a s j j [.tX0XB C H H V V C ",
"S H S V Z Z ~ 0.8.0.P f 2 < 0 3.7.7.3.7.3.2.-.Y 1 - - ; : : : : 1 2 : : ; ; : s 3.7.7.7.3.-.#.$.L e j j a j /.tXiX>.H B V H V V ",
"V n V Z Z B >.d.e.r.e.P 1 1 1 1 < 1 1 - - - ; 1 - : 1 : : 1 1 : 1 : 1 : : 1 : : < 2 ; > : 1 : - 2 a s j q %.V.*XiXE.V V C C V V ",
"V D 7 Z M V e.h.L.Z.Z.7.P p 1 1 1 1 1 : 1 : 1 1 2 1 1 1 w w w i 1 w w i w 1 1 : 2 1 : : 1 1 1 1 s d a q v t.m.S.eX9XN H V V C H ",
"J ( B C M ` h.P.T.L.L.K.r.$.f p 1 1 1 1 1 1 e p a a y p y p a p a a a u p y 1 1 1 1 1 1 2 2 9 f a e a v +.M.i.b.(.gXq.H V V H Z ",
"} [ } E { r.K.T.T.T.T.T.T.K.r.7.7.>.Y P Y K P Y P s K ^ U Y P P P K P F s P ^ P K K K P P K b b 2.K.z.6.=.=.M.i.n.<X=X| ( ( | { ",
"E J _ E W L.T.!.!.!.E.T.K.r.r.G.^.^.7.4.4.4.4.4.*.g ! L.L.4.4.4.4.4.5...j 3.R.g.4.4.4.5.4.;.h x U 3.r.Q.OXW.v.d.m.V.5X} { { [ W ",
"3 4 W W ] '.Q.R.r.>.^ ` ( E E _ ^.@XE.8.6.0.6.6. .v ^ L.Q.h.8.6.8.8.5.h j 7.E.T.8.6.8.6.6.+.....9 < 6 N T ~ >.L.Q.~.{.^ N H W ( ",
"J _ } } R f ' [ ' W { { | } [ } q.@X@Xg.a.a.0.6...I / L.^.!.0.u.u.u.@...^ q.Q.^.z.a.8.a.a...X.[ _ E ' ' [ ' 6 J { { <.} } } } { ",
"{ } W [ B 3 C T [ [ ( V Z [ } ' V q.-X!.a.e.a.*...D 5 T Q.#Xz.a.a.a. . .` { D.^.Q.g.a.a.;. .F Z ' { W V V ' 6 6 M E _ } } ' ) E ",
"( E Z [ D 3 n Z T T Z S Z T E Z H V D.-Xh.g.a.X.g 5 5 M ` #XW.g.g.:.X.R Z T T r.@XF.h.a.+.s 5 V H T V S H { 0 & 4 Z Z T E J Z Z ",
"B Z E { S O 3 B V H S H Z Z Z Z H S S R.W.k.5.1.8 3 7 V H ] @Xk.j.@.D V Z Z Z Z L.W.k.8.O.+ 3 B Z Z V T [ ) 7 & 5 V H H H Z Z Z ",
"Z Z _ { S O 3 B V V H V H H Z Z H H H H Q.Z.9.{ 7 * B Z Z Z D.Q.g.D M V Z V Z Z H Q.P.9._ & < 7 H V V T | [ 9 4 5 M V H V H Z Z ",
"V T } } B % 5 M H V H H V V Z Z H H H H Q r.{ W < * n Z Z Z ' r.! 7 M Z Z Z Z Z S R F.{ R & 5 M H H S V T { M 3 7 M S H H Z Z V "
};
