/* XPM */
static char *peachres_removebg_preview[] = {
/* columns rows colors chars-per-pixel */
"64 64 251 2 ",
"   c #09151F",
".  c #07161F",
"X  c #091622",
"o  c #0A1925",
"O  c #0B1D2B",
"+  c #071520",
"@  c #101F2E",
"#  c #0D202F",
"$  c #11222E",
"%  c #0D2334",
"&  c #0E2639",
"*  c #0F2A3E",
"=  c #122534",
"-  c #122A3D",
";  c #15293B",
":  c #292D32",
">  c #4F2C3F",
",  c #744E10",
"<  c #5C552F",
"1  c #78562E",
"2  c #7C643E",
"3  c #0F2A40",
"4  c #132D42",
"5  c #1A2E41",
"6  c #163146",
"7  c #1B3144",
"8  c #1B354A",
"9  c #1E394E",
"0  c #173348",
"q  c #1F3B50",
"w  c #213A4E",
"e  c #23374A",
"r  c #203B51",
"t  c #2A3D53",
"y  c #353E54",
"u  c #3C3347",
"i  c #503648",
"p  c #244057",
"a  c #26425A",
"s  c #29455D",
"d  c #2B4357",
"f  c #354758",
"g  c #364850",
"h  c #2D4B64",
"j  c #2F4E68",
"k  c #294661",
"l  c #314E66",
"z  c #314F69",
"x  c #33526C",
"c  c #3C566C",
"v  c #365671",
"b  c #3A5A76",
"n  c #3B5C79",
"m  c #385773",
"M  c #47485A",
"N  c #535257",
"B  c #73445C",
"V  c #716F50",
"C  c #485969",
"Z  c #525770",
"A  c #694661",
"S  c #7C4967",
"D  c #71566D",
"F  c #516473",
"G  c #6A6B73",
"H  c #59625C",
"J  c #91363B",
"K  c #C33339",
"L  c #8B6A1A",
"P  c #8B4930",
"I  c #9B7726",
"U  c #906932",
"Y  c #A47D2A",
"T  c #AA7437",
"R  c #B47017",
"E  c #D17129",
"W  c #CE7113",
"Q  c #AD3F5E",
"!  c #833E58",
"~  c #AD425D",
"^  c #B2505B",
"/  c #8E724E",
"(  c #A8704B",
")  c #8E516F",
"_  c #AE4764",
"`  c #B74564",
"'  c #B7536C",
"]  c #BA5974",
"[  c #A95B76",
"{  c #956D76",
"}  c #BB666B",
"|  c #B16E74",
" . c #C7486A",
".. c #D94D73",
"X. c #C45876",
"o. c #D85478",
"O. c #D2486D",
"+. c #E14F77",
"@. c #E4527A",
"#. c #EB537C",
"$. c #E3547B",
"%. c #F2567E",
"&. c #C76578",
"*. c #CB6D6E",
"=. c #C27445",
"-. c #D73B4C",
";. c #7D806F",
":. c #AB861D",
">. c #A98827",
",. c #AF912B",
"<. c #B69828",
"1. c #A98738",
"2. c #AF9235",
"3. c #B39031",
"4. c #BDA22D",
"5. c #BDA233",
"6. c #9D8234",
"7. c #CD8D0E",
"8. c #CAA828",
"9. c #D8B428",
"0. c #D1AF31",
"q. c #E6B726",
"w. c #DD9F18",
"e. c #EAC529",
"r. c #F6D537",
"t. c #F2CF31",
"y. c #FDE434",
"u. c #998957",
"i. c #9A8342",
"p. c #B88557",
"a. c #A89459",
"s. c #B28F4C",
"d. c #BAA34F",
"f. c #938A6D",
"g. c #B58E75",
"h. c #ACA76E",
"j. c #C59850",
"k. c #CEB350",
"l. c #CB8F71",
"z. c #CDB368",
"x. c #E8B16A",
"c. c #E3A462",
"v. c #EBCE49",
"b. c #FDE849",
"n. c #D8CD73",
"m. c #FDEC6A",
"M. c #FCED76",
"N. c #EBCB60",
"B. c #546C84",
"V. c #727289",
"C. c #4679AA",
"Z. c #376393",
"A. c #927189",
"S. c #B37289",
"D. c #D35C82",
"F. c #E85B84",
"G. c #F35A83",
"H. c #FA5A85",
"J. c #FD5E8B",
"K. c #F55A85",
"L. c #C96884",
"P. c #D46B8B",
"I. c #DA6D8E",
"U. c #D36685",
"Y. c #D4738D",
"T. c #DD6F90",
"R. c #DC7292",
"E. c #DB7996",
"W. c #CB7791",
"Q. c #E76A8E",
"!. c #FD628F",
"~. c #F5628C",
"^. c #E56C92",
"/. c #FD6592",
"(. c #FE6C9B",
"). c #FA6994",
"_. c #E37394",
"`. c #E5769A",
"'. c #EB7699",
"]. c #EC799D",
"[. c #E67799",
"{. c #FC729D",
"}. c #F1799D",
"|. c #F3759C",
" X c #DB7DA1",
".X c #F67BA0",
"XX c #FB7DA3",
"oX c #FD76A2",
"OX c #E67CA2",
"+X c #7296A8",
"@X c #8B8689",
"#X c #999290",
"$X c #A69A9B",
"%X c #B1908C",
"&X c #AE91AC",
"*X c #AAA8A8",
"=X c #B6B5B4",
"-X c #B5ACAB",
";X c #97A4A5",
":X c #DA9A84",
">X c #DE829D",
",X c #CB8A91",
"<X c #E79A87",
"1X c #E89490",
"2X c #E9A38A",
"3X c #F4AA92",
"4X c #F8B79B",
"5X c #EFAF94",
"6X c #D295AD",
"7X c #FE81A6",
"8X c #FD85AB",
"9X c #FE88AF",
"0X c #F484A8",
"qX c #FD8CB3",
"wX c #F78BB6",
"eX c #FE90B7",
"rX c #FE93BB",
"tX c #F695BB",
"yX c #EA8EAD",
"uX c #C8B4B5",
"iX c #FBBCA0",
"pX c #EABCAB",
"aX c #DEAB91",
"sX c #FBC7AB",
"dX c #FAD4B6",
"fX c #F9CDB1",
"gX c #F3EB8F",
"hX c #A1B5C2",
"jX c #FE97C1",
"kX c #FE9BC5",
"lX c #FD9EC9",
"zX c #F796C2",
"xX c #EF99C2",
"cX c #D7AEC3",
"vX c #FEA2CD",
"bX c #F8A5CA",
"nX c #FEA5D1",
"mX c #FEAAD5",
"MX c #FEADDA",
"NX c #F3AAD2",
"BX c #FEB2DD",
"VX c #FCB0D7",
"CX c #E7AACA",
"ZX c #FEB3E1",
"AX c #DD9FC2",
"SX c #BEC8CE",
"DX c #D2D1CD",
"FX c #EBD1D1",
"GX c #EDE7D7",
"HX c #F0F0EC",
"JX c #F6D0E0",
/* pixels */
"o % 4 # + % & % & & % O + & 3 3 * % % # % * & e 6.:.1 g r q b 6.: % 6 q q q q q r q l x 8 $ * w r q q r s b ; # % % & # . $ - * ",
"o O # o o O O o O O O o o O O # # # # : < # : :.w.W W 7.U < ,.7.: & 8 q q q q q q r q j w . * 0 r r r q r b e # # # # o # . # # ",
"C b b ; x n b k t n n b n n k v n n x h 6.:.:.7.E -.K R 7.w.w.1.B.- q 8 w r q q q r q h j # & 0 q r r w p b ; h b b h p m n n j ",
"x k b = 4 r z m v t a k k v m v p a b b +X4.9.q.w.E w.q.t.r.r.t.v.v.d.f.H d q q q q r m j $ & * q q w p b v ; - r p x m s p s b ",
"q q n = O 0 r r p q q q q q q q p g f.n.m.M.m.m.M.m.y.t.e.e.e.9.0.5.9.9.k.z.f.V V V p b j . % * w r r p n h = # 6 q q h p q q a ",
"9 x n & & 3 0 8 r q q 9 8 q r 8 c n.y.m.M.M.m.m.M.m.e.q.9.q.8.<.4.<.8.8.9.0.k.z.d.u.w l j # * 0 r r q r j n ; - * 9 6 q q 9 9 q ",
"% 9 k % o & 3 4 - 0 - - % G V h.gXb.y.r.r.r.t.t.e.q.q.8.4.<.<.,.,.>.,.4.4.4.4.5.d.u.;.u.C $ 6 q q r r w p b - % * * * * 6 * # * ",
"+ + & o + + O # o # # . o d.b.m.b.y.t.9.0.9.9.9.8.8.<.:.:.:.>.>.i.6.>.,.4.4.4.4.<.<.,.a.C # - w q q q r q m e . # % + # % # . # ",
"= s s s s s - + . . . . : < N.b.y.y.9.8.:.I j.3.>.I I I Y 1.s.l.l.l.i.,.<.<.<.<.,.3.s.;.h . ; 9 r 9 r q q v 7 d a r - p s s p ; ",
"# a x n x x n w # = 0 e n.N.v.r.r.e.9.<.:.s.5X2Xx.l.s.s.l.l.:X{ f.@X{ p.Y >.>.>.2.a.C x h . & - 8 9 9 9 k v = 0 j x j n x v n x ",
"o 3 r x s r j n ; x d 9 f d.k.t.0.8.8.<.R g.%X*XA.%X4X4X2X2X| F f +X$Xg.p.<.s.I 6.a.; 6 p # * * * 4 * 3 6 q ; ; 8 p j a w p s n ",
"+ * w w 9 9 q b s m p w p 9 N V u.d.>.3.>.l.uXhXv +XsXdXfX4XaX-X;X$X:X:Xp.<.a.g.>.i.. # # . # . o O + O O O o O * r r w 9 9 j m ",
"o & 0 9 r w q n s x r r r r 9 q d u.>.j.r.x.sXdXDXGXGXGXsX3XiXsX4X3X2Xl.1.5.{ u.2.;.x x l s x j x x s 8 w =   X O 5 w r p 9 m j ",
"O * 0 q r r r n w n a q r r r w p : V p.N.r.x.sXfXfXdXfX4Xx.1X3X3X2X2Xl.I / Z.+Xa.a.n v j H j n n n n v n v = X O = r w 9 9 d n ",
"o & 6 9 r r s n 6 x q r r r w q - 7 p g hX;Xk.c.iXsXiX4X*.} *.1X<X2Xl.U L M F G 6.,.s.i.6.i.r q s b m a r b 7 % o 8 8 w q q p z ",
". O * 9 w r w n ; m p r q r q r 9 h.h.h.+XC.F / T =.x.3X3X3X<Xx.<X} , , , , L L :.,.,.>.,.u.w w q a a q r m p * O 5 # ; q q q z ",
"o O - 0 9 8 8 b 9 n v k r r r t k H k.0.v.x.j.P , , , J ' } } ^ ^ ~ J 1 ( ,XaXtX3XyX1Xj.s.a.f 9 q r r r h b - 7 % + + + 0 r s b ",
"o & * * 6 * 4 a t v q q t v v x v V.&XbXvXlXrX9X'.} %XFXFXDX6X[.L.D.X.xXNXMXmXnXnXvXrXqX7Xl.h.g 9 r r r h v = 8 * & % + 8 r v b ",
". o . # # o # % & t r j j a 8 e &XZXBXMXnXvXrXrXnXJXDXDXDX=X*X6XnXbXbXmXmXmXnXvXkXqXeX8X0XY.:Xf.w q q w q x ; 8 3 * * O 8 j n k ",
"= h s j j h h = j k q q x v z &XZXBXmXnXvXrXvXBXZXcX;X*X=X*X=XuXvXrXqXlXlXjXjXeX8X`.7X}.T.I.E.k.C r r q q s 9 * 3 3 * # 5 t v b ",
"# q 9 s h r z # 9 x b v j j Z 6XwXjXrXeX8X8XMXMXMXJX=X@X*X*X-X-X>X0X_.[.}.].'.T.U.} &.U.P.P.Y.j.V p r r r a p 6 3 * 3 * O r a b ",
"o * 6 9 8 p b o & 9 a k q q k G L.1XpX1X*.&.rXVXJXDX$X@XV.@X$X*X=XuX,XS.&.' *.:XpX5X<X} X.| 1.d.H q 9 8 8 h p 8 3 3 3 3 o ; s n ",
"o & * 6 - 6 j o O 6 q q q q a +XHXGXFXsXpXFXHXGX=X%X,X=.( E [ S.$X*X*X=X=X-XuXGXGXGXuX$X%XY ,.a.7 4 4 * * 8 8 8 4 * 4 3 # X = z ",
"+ + % o # O % . & 0 q q q q h SXHXHXHXHXHXDX=X$X6XwX0X0XR.L.L.D.] | #X$X$X*X=X=XDXDXDX=Xh.6.s.N O o X % O # o ; 5 0 & & 5 & o X ",
"s 9 - p s s s o % 9 q q r q B.HXHXGXDX=X&X@Xj.l.].E.OXE.OX`.T.D.X.X.[ / / @X$X$X*X-X*X*Xa.T a.C s p = a d p 6 d a h k r q h s 8 ",
"x b x b z s n # - 6 9 q q q b =X;XA.V.B.C x f.( T. XOXOXOXOXT.D.X.' _ J P , / / f.@X#Xf.U I I G n v # a z b b v a a b n b j x n ",
"s b j p q a b O * * 9 9 q 9 a m O 3 d F A.P.D.F.D.^.yXtXOXOX^.F.F.....O. .~ Q ^ ( U L 1 1 1 U I V l o & 8 s b p q r t j s q r a ",
"9 r 9 9 9 a b o % * * 6 0 - 8 x + A W.oX(.(./.(.!.!.~.wXoX(./.(./.!.J.J.%.@... .] } ^ V V e e c F a + # 0 q q q r r q q q r r r ",
"w r 9 9 9 x h o o # & % O o & y S.oXoX(.(.(.(.(.J./.OXvXoX(././././.!.J.%.%.%.@.o.X.} | M p w p b x o & 8 9 w 9 r r q q q r r r ",
"w r 9 0 9 j x o 8 w p r w d S ].(.(.(.(.(.(.K.^.zXMXZXMXMXXX(.(./.!.J.H.%.%.%.%.#.o.&.U.W.{ f w n v # 3 9 9 9 8 9 q r q q q r q ",
"6 0 & & 0 q v # 8 d a 9 9 A.oXoXoX(.!.F.F.OXNXZXMXZXMXMXMXnXzX|.F.H.H.H.%.%.%.%.#... . .] } S.d k a O * 9 0 * & 3 3 3 8 4 - 4 8 ",
"& # o o % * 0 o % 6 6 5 S.(./.J.+.D.E.xXZXZXZXZXZXZXZXMXMXmXnXnXzX0XQ...@.#.@.+.@.o.o...X.] &.A.m h . O * * # o # & O ; * O O & ",
"; = ; 4 5 X + + X X   @ D.D.D. XbXZXZXZXZXZXZXZXZXBXVXMXMXnXnXvXvXvXkXrX[.L. .` `  .` ` ` ` ' | A.v % 5 5 5 ; = @ = 5 5 5 5 5 ; ",
"b a v n C ; 8 % X X   o AXZXZXZXZXZXZXZXZXZXZXBXBXBXMXMXnXnXnXvXvXvXlXkXjXrXqX0X_.X.X.' X.X.&.L.S.h % x n b v x s v b n b b n n ",
"x n k t n 0 n q 7 ; & V.ZXZXZXZXZXZXZXZXZXZXZXZXMXMXMXmXnXnXvXvXvXvXkXkXjXeXeXqX9X8X7X].^.T.R.[.>XD O 4 r h j v n z r r r r a m ",
"q t q t n 3 x r r 9 q cXZXZXZXZXZXZXZXZXZXZXBXBXMXMXMXnXnXnXvXvXvXlXkXkXjXrXeXqX9X9X7XXX]._.T.E.>X>X: & 0 r q r a w r r r r r r ",
"q q q h v & a z q 8 V.mXZXZXMXZXMXMXZXZXZXBXMXMXMXMXmXnXnXvXvXvXlXlXlXkXjXrXeXqXqX8X7X7X}._._.R.E.>XS.o 6 q q q r q r q r r w r ",
"9 q q v k 4 j j r r AXMXZXZXMXMXMXMXZXZXZXMXBXMXMXmXmXnXvXvXvXvXlXlXkXlXjXrXeXqX9X9X8X7X7X'._.T.E.[.>XA 6 9 q 8 9 9 9 q r r r r ",
"3 4 0 k v q n q 9 x MXMXZXMXMXmXMXMXMXMXMXMXMXMXmXmXnXnXvXvXvXlXjXlXlXjXjXrXeXqX9X9X8X7X7X}._._.R.R.E.,Xe 4 6 3 6 4 3 0 6 q q 8 ",
"O % % 3 q q n z j &XBXBXMXMXmXNXMXMXZXMXMXMXMXmXmXnXnXnXvXvXkXkXkXlXlXjXjXrXeXqXqX8X8X7X7X}._._._._.E.>X{ % O O & % % * 3 4 % % ",
"X X X O O % - = 6 CXZXMXMXMXnXnXMXMXMXMXMXMXMXMXMXnXvXvXvXvXlXkXjXlXlXjXjXrXeXeXqX9X8X7X7X.X'._.[._.R.E.>Xu o O + o o O O O o o ",
"v t j n n v s b V.ZXMXMXMXNXnXmXMXMXMXMXMXMXnXnXnXnXnXvXvXvXkXlXjXlXlXjXjXrXeXqXqX9X9X7X7X.X}._._.'._.R.[.S.v x v x r x n n n n ",
"b m x a a v n h &XZXMXMXmXnXlXNXMXMXMXMXMXnXMXnXnXvXvXvXvXvXjXkXjXlXlXjXjXeXeXqXqX9X8X7X7XXX}._.I.[.'._.R.E.D t p b v m s a a x ",
"a k q q 9 t s l NXMXmXMXmXnXlXMXMXMXMXMXMXMXnXnXvXvXvXvXlXkXkXrXrXjXlXjXjXrXeXeXqX9X9X7X7XXX}.'.T.R.]._.R.E.W.d q a h 9 q q 9 9 ",
"6 8 8 9 9 8 q A.MXMXMXMXnXnXlXMXMXMXMXnXnXMXnXnXvXvXvXvXvXlXjXjXrXlXjXjXjXrXeXeXqX9X9X7XXXXX.X}._.I.[.]._.R.E.{ 9 w 9 9 6 8 q r ",
"& * 6 6 4 * 6 AXMXMXNXnXnXzXlXMXMXMXnXMXnXnXnXnXvXvXvXvXkXlXjXrXrXjXlXjXrXrXeXqXwX9X9X8X7XXX}.}._.T._.].].R.R.E.M 6 6 6 - 6 6 6 ",
"+ o & % O + Z mXMXmXmXmXlXzXnXMXnXMXMXnXnXnXnXnXvXvXvXlXkXkXjXrXeXlXjXjXrXrXeXeXqX9X8X7X7XXX.X}.'.R.R.[.].[.R.R.S.O % % O % % o ",
". . + . + + 6XMXMXmXmXnXzXzXnXMXnXnXnXnXnXnXnXvXvXvXkXlXlXjXjXrXeXjXlXjXrXrXeXqXqXqX9X7X7XXX.X}.'.R.I.T.].].R.R.Y.B           . ",
"O o     O M MXmXMXmXnXlXzXzXmXmXmXnXnXnXnXnXvXvXvXvXkXlXlXjXrXrXqXjXkXjXrXeXeXeXqX9X9X9X7XXX.X}.'.R.I.I._.`.`.R.Y.W.: + O O X   ",
"4 & = o 8 6XmXMXmXnXvXlXzXzXmXnXmXnXnXnXnXvXvXvXvXrXkXkXjXkXrXeXqXjXjXjXrXeXeXqXqX9X9X7X7XXX.X}.'.^.I.P.T.`.].[.I.R.{ 5 8 8 % O ",
"r r r r V.nXmXmXnXnXlXzXzXvXmXnXnXnXnXvXvXvXvXkXkXkXlXjXjXrXrXeXqXrXjXjXrXeXeXqXqX9X8X7X7XXX.X}.'._.I.I.P.T.`.[.R.R.W.D r w w 6 ",
"r r r d CXMXmXmXnXlXzXzXwXnXnXnXnXvXnXnXvXvXvXvXkXlXlXrXrXrXeXeXqXrXjXrXeXeXqXqX9X9X9X9X7XXX.X}.'._.I.P.I.I._._.R.I.Y.S.t r r r ",
"w 5 r &XnXnXmXnXnXlXxXwXzXnXnXnXvXvXvXvXvXlXlXlXkXkXjXrXrXrXrXeXqXeXjXrXeXeXqXqXwX9X9X7X7X7X.X}.'._.I.I.P.P.I._.R.R.Y.W.D 0 q q ",
"w 7 N MXmXmXmXnXlXzXzXwXzXvXnXvXvXvXvXvXlXlXlXkXlXrXlXrXrXrXeXqX9XqXrXrXeXeXqXqX9X9X9X7X7XXXXX}.'._.T.I.P.P.P.I.R.T.I.Y.W.M 8 r ",
"t c AXmXmXnXnXvXlXzXwXwXlXnXnXvXvXvXvXvXlXlXkXkXjXjXjXjXrXrXeXqXqXqXrXrXeXeXqXqX9X9X8X8X7XXX.X|.'._.^.I.P.P.P.P.I.P.Y.P.Y.S.l w ",
"n A.lXmXmXnXnXkXzXzXwXwXnXnXvXvXvXvXkXvXkXkXlXkXjXrXrXrXrXrXeXeX9XqXrXeXeXqXqXwX9X9X8X7X7XXX.X|.'.^.T.I.P.P.U.P.P.P.P.P.L.[ S.Z ",
"Z {.(.zXvXnXvXkXzXwXwXzXvXvXvXvXlXvXlXlXjXlXjXjXjXjXrXjXjXeXeXqX9X9XrXeXeXqXqXqX9X9XXX9XXXXX.X.X'._.T.I.P.P.P.U.L.L.X.] ` ' ' { ",
"I.(.(.(.(.oXzXzXwXwXwXzXvXvXvXvXlXlXlXlXlXjXjXjXjXrXrXeXeXeXqXqX9X9XrXrXqXqXqXqX9X9X9XXX8XXX.X].'._.^.P.U.U.] ` Q Q Q _ _ _ ' [ ",
"L.(./././.!.J.K.J.K.K.XXjXvXlXlXkXkXkXkXjXlXjXjXrXrXrXrXeXqXeXqX9X9XeXwXqXqXqX9X9X8XXXoX8XXXXX.X'._.T.D.] Q ~ ~ Q Q Q _ ~ _ ) Z ",
"Z S.)././.!.J.H.G.G.H.!.!.oXoXXXrXjXkXkXjXjXjXjXrXrXrXeXrXqXqXXX7X.X9X9XqX9XqX9X9X8X9XoXXXoX|.Q.D.o. . .` Q ` ` ! B ! S D Z h d ",
"k k y A.S. .F.G.G.F.~.!.!./././././.(.(.{.{.oXoXoXoX(.{.!./.~.G.#.+.H.K.G.G.G.G.G.G.F.F.@.+.....O.O. .` ` Q Q i & q q a p q q q ",
"q q q x 8 X % t t y ) ).!././.!.!.!.!.!./.!.!.!.J.J.H.H.H.G.G.@.+...K.G.G.G.%.#.+.G.+.#.+.......O.O. . .Q ) > X ; r q r q q q q ",
"q q j n e + % 8 r r q t S D.).!./.!.!.!.J.J.H.J.J.H.H.H.G.F.G.G.+.O.F.G.G.G.%.#.G.F.F.F.+.+..... .` ! A Z v ; % 3 6 r r r q q r ",
"q q n n e o & 4 9 r q q q r y M S ) [ L.F.F.~.J.G.G.F.o.D._ ) B : 5 5 y M A A S ! B S ) A > i y t w w w p b 7 % 3 6 q r r r r q "
};
