/* XPM */
static char *piece__1__removebg_preview[] = {
/* columns rows colors chars-per-pixel */
"64 64 222 2 ",
"   c #09151F",
".  c #07151F",
"X  c #161E1E",
"o  c #24251E",
"O  c #071621",
"+  c #091621",
"@  c #0A1925",
"#  c #0B1D2B",
"$  c #0D1F30",
"%  c #0E202E",
"&  c #19252A",
"*  c #0D2234",
"=  c #0E2639",
"-  c #0F293E",
";  c #122534",
":  c #112739",
">  c #132A3D",
",  c #192D3D",
"<  c #1C303F",
"1  c #2F362D",
"2  c #25353B",
"3  c #303731",
"4  c #3A4337",
"5  c #4F441D",
"6  c #7D5A04",
"7  c #7C5503",
"8  c #745A1D",
"9  c #6D4E1F",
"0  c #7D641E",
"q  c #48452C",
"w  c #474938",
"e  c #4B533B",
"r  c #585538",
"t  c #584E31",
"y  c #675727",
"u  c #755C2A",
"i  c #655939",
"p  c #6B5731",
"a  c #726A2F",
"s  c #0F2A40",
"d  c #132D41",
"f  c #192E40",
"g  c #163146",
"h  c #1C3245",
"j  c #1B354B",
"k  c #1E394F",
"l  c #17344A",
"z  c #1F3B50",
"x  c #203544",
"c  c #20374B",
"v  c #213A4E",
"b  c #293E4A",
"n  c #203B51",
"m  c #334247",
"M  c #33444B",
"N  c #3B4947",
"B  c #244057",
"V  c #26425A",
"C  c #29455D",
"Z  c #284257",
"A  c #2D4551",
"S  c #2B4761",
"D  c #2D4A63",
"F  c #2F4E68",
"G  c #304E67",
"H  c #314F69",
"J  c #33536C",
"K  c #395466",
"L  c #365672",
"P  c #375873",
"I  c #3A5A76",
"U  c #3B5C79",
"Y  c #385773",
"T  c #48534C",
"R  c #545948",
"E  c #4A5152",
"W  c #495553",
"Q  c #605B4F",
"!  c #5E654B",
"~  c #4C605E",
"^  c #596356",
"/  c #68704B",
"(  c #797544",
")  c #67674D",
"_  c #475C68",
"`  c #505E60",
"'  c #435D71",
"]  c #4C626C",
"[  c #636E60",
"{  c #825C05",
"}  c #856305",
"|  c #8C6406",
" . c #8C6A06",
".. c #8E6C08",
"X. c #946605",
"o. c #956C06",
"O. c #9C6E06",
"+. c #976A09",
"@. c #9A7106",
"#. c #947208",
"$. c #9C7309",
"%. c #9D7B0A",
"&. c #967206",
"*. c #8F6B19",
"=. c #966D1B",
"-. c #987D1B",
";. c #8E701D",
":. c #A06F06",
">. c #A16E08",
",. c #A27207",
"<. c #AC7F07",
"1. c #A17208",
"2. c #A87608",
"3. c #A57D0A",
"4. c #AA7E09",
"5. c #A87607",
"6. c #A67C16",
"7. c #B17F14",
"8. c #866728",
"9. c #8B742C",
"0. c #927723",
"q. c #887737",
"w. c #8D722E",
"e. c #A47823",
"r. c #817745",
"t. c #7A8769",
"y. c #9B8119",
"u. c #A5820B",
"i. c #AB840C",
"p. c #AE880D",
"a. c #AD8007",
"s. c #B38107",
"d. c #B3860C",
"f. c #B38A0D",
"g. c #BA8D0C",
"h. c #B88608",
"j. c #B6910F",
"k. c #BC920E",
"l. c #BF980E",
"z. c #A48215",
"x. c #A1831A",
"c. c #AC8516",
"v. c #B58C11",
"b. c #BB8C17",
"n. c #B69110",
"m. c #BC9411",
"M. c #BF9913",
"N. c #BD9B18",
"B. c #BE9719",
"V. c #928534",
"C. c #A68727",
"Z. c #B79627",
"A. c #A89439",
"S. c #A68C30",
"D. c #BCA332",
"F. c #C1950E",
"G. c #C3990F",
"H. c #CA9D0D",
"J. c #C29610",
"K. c #C49C11",
"L. c #C99E11",
"P. c #C59D18",
"I. c #CBA40D",
"U. c #CEAA0C",
"Y. c #D3AA0D",
"T. c #DDBF0F",
"R. c #C6A112",
"E. c #CBA312",
"W. c #CEA914",
"Q. c #C5A11C",
"!. c #CAA51B",
"~. c #CDAA1C",
"^. c #D1A612",
"/. c #D3AC14",
"(. c #D1AC1D",
"). c #D8AC11",
"_. c #D6B115",
"`. c #D9B316",
"'. c #DCB917",
"]. c #D4B31C",
"[. c #DBB618",
"{. c #DDBB19",
"}. c #D3B816",
"|. c #E1BE19",
" X c #E8BD13",
".X c #E1B50F",
"XX c #C29D24",
"oX c #CCA622",
"OX c #C8AA28",
"+X c #CEB22A",
"@X c #D4B522",
"#X c #DBBC22",
"$X c #D3B42C",
"%X c #D4BC36",
"&X c #C8B438",
"*X c #DDC00F",
"=X c #DBC219",
"-X c #E2C019",
";X c #E9C514",
":X c #ECDB1B",
">X c #F4DA18",
",X c #EDC911",
"<X c #F5E51A",
"1X c #FBF21D",
"2X c #DFC427",
"3X c #E2C726",
"4X c #E7CB28",
"5X c #EBDE23",
"6X c #E8D532",
"7X c #F3E925",
"8X c #FCF523",
"9X c #F3E337",
"0X c #999446",
"qX c #868751",
"wX c #958648",
"eX c #AB9745",
"rX c #B3A647",
"tX c #BAB255",
"yX c #B1AA5B",
"uX c #A4A962",
"iX c #CEBE4A",
"pX c #D0C34A",
/* pixels */
"@ * > $ @ $ = $ - - * # @ : d s d = $ $ = s s l : * h z n n Y U O $ d v v v v n z z D J j $ d k z z z z C U h @ * = - # @ * - s ",
"@ # $ @ @ @ # @ @ # # # @ # # # $ # @ @ # $ # # @ & w / qXeXtXiXeXeXwXr.! N v v z k n H n @ > l z z n n z I h % @ % # + @ @ % % ",
"I U U , J U U S V U U U U U D L U U L F U ' R q.Z.oX(.!.R.R.R.l.J.J.K.P.!.oXOXA./ T n D G @ - h n n z n V I h C U I D V P I U J ",
"H V U ; d n F P L n V n V L P P n V P ` r.Z.!.W.P.L.K.K.K.G.l.K.B.J.M.M.J.m.m.m.P.$XrXt.K # = s n n n n I K : - n V J P C V C P ",
"n n U ; # l n n n n n n n k n k k N 9.Q.W.R.R.R.K.K.K.l.M.R.l.l.F.M.M.m.M.k.M.k.m.k.m.oXpXa ; - n n B B I C ; # g z z D n z z C ",
"k H U ; = s d k n n n n k k v b q.~.W.I.R.R.M.R.K.K.R.G.l.l.M.l.l.F.m.l.m.m.m.m.j.m.m.g.n.oXpX/ v n k k F U < - s j g z z k j k ",
"$ k D ; @ = - d d g f d $ d r XXW.R.R.R.R.R.R.R.K.L.J.l.l.G.M.m.l.l.J.M.m.m.m.m.m.j.m.m.n.m.k.$XtXM v k B I h % s - - s g - * d ",
"O O * @ O O # $ @ # + O X w.oX^.I.R.R.R.R.K.l.R.K.J.M.G.l.l.l.l.m.m.k.m.m.m.m.k.m.m.n.n.m.n.j.j.N.pX! B n P h   * * @ # * # . % ",
"; S C C S C > @ O O @ o C.(.L.E.R.R.L.R.K.R.R.l.M.j.u.#. .} 6 6 6 6 }  .#.u.m.m.m.m.n.j.j.j.k.g.j.n.2Xt.n P h C C n , v C C B , ",
"# n J U H H U b @ ; 3 Z.!.E.E.L.R.R.L.K.K.K.j.u. .6 6 }  .&.&.%.%.$.@.| 6 7 7 | 3.v.m.j.g.k.g.j.p.n.n.OXuXK = l F J H U J P U G ",
"@ d n H C n H I f E Z.E.E.E.L.L.R.K.R.l.j.%.} 6  .u.m.W./._._._././.W.W.R.l.u. .6 { 1.v.j.j.g.j.j.j.j.j.OXuX- - l n J V n n S U ",
"@ : n n n v n I E Z.!.L.L.L.E.L.R.R.m.u.} } u.M._.{.'.'.'._._._._./.W.E.E.R.R.K.j.$.{ } u.v.n.v.j.j.j.j.j.OXV.* > k n n n n F J ",
"@ = g n v n n _ S.^.E.R.E.L.L.L.R.f.#.} %.R.{.|.-X|.{.`.`._._._.W.W.E.W.R.R.R.K.J.l.j.$.6 #.v.g.f.j.j.f.f.j.+Xi # d z n n n P D ",
"# s g n n n v q.^.R.E.R.L.L.L.P.p.....l.{.-X-X|.=X{.{.`._.]././.W.W.W.E.R.R.J.l.M.l.k.j.i.| | v.j.f.f.j.v.j.v.2X4 ; v n n n C U ",
"@ - d n v v Q !.E.L.R.R.L.P.K.i. .&.E.|.|.|.{.{.'.'._.j.u.%.%.3.u.u.u.3.l.J.K.l.l.m.j.j.v.f.#.{ i.g.j.f.n.f.f.j.&XA j v n n n J ",
"O # s k v b B.E.E.L.L.L.L.K.p...3._.{.{.{.{.'.'.}.'.n.} { { { { { { 7 7 #.J.l.m.j.g.g.g.f.f.d.@.| p.f.j.f.j.f.j.N.0X@ , z z z J ",
"O @ s h n w.!.E.R.L.L.L.K.p.#.3.W.'.{.[.[.`.`._._._.@X .X.X.X.X.X.X.X.X.| R.k.k.j.g.j.f.j.f.f.p.#.| d.v.v.p.j.f.j.%X4 . < v C U ",
"@ = : d 3 oXL.L.L.L.L.K.n.#.,./.[.[..X`.`.]._._._._.@X .o.O.O.O.O.O.O.d.%.R.k.j.j.j.f.j.f.p.d.h.i.#.@.v.j.f.j.f.p.n.rX. g v J U ",
"O O O # 0.E.L.L.R.L.L.l.%.&.R.`.`.`.`._._.]./._././.@Xo.O.O.>.>.>.O.,.f.4.K.k.j.g.f.f.p.f.p.p.p.v.u.X.3.g.v.j.f.j.j.+Xw j F U C ",
"; G S E P.L.L.L.K.L.G.u...j._._.`.`.`._._././././.W.@Xo.O.O.,.$.1.>.$.g.p.J.j.f.j.f.j.f.f.f.p.p.i.i.3.X.i.j.p.j.f.f.n.eX< n P I ",
"# z z 8.!.L.L.K.L.K.j.&.2.)./.`._._._./././.W.^./.E.].o.O.$.>.$.$.1.1.g.h.l.j.j.f.f.f.f.f.f.p.p.i.p.i.$.1.v.v.f.j.f.n.$X1 v C U ",
"# s h b.L.K.L.K.K.K.u.&.P./.`._._._./././././.E.W.E.(.&.O.,.,.,.>.1.,.f.f.l.f.j.j.f.f.f.p.f.p.p.i.f.i.u.+.i.f.f.p.v.p.N.a , C U ",
"@ = q P.L.K.K.K.L.j.$.4.^._.).`.).)./.^././.E.E.E.E.~.O.O.>.>.,.,.>.,.g.f.l.j.j.j.f.f.p.d.p.p.p.p.p.i.i.1.1.v.v.f.v.p.f.D.. ; D ",
"O O 8.L.G.L.K.K.J.f.#.K./.)././././././.E.E.E.E.E.R.~.o.O.,.$.1.,.>.1.d.h.l.f.j.f.f.f.p.p.p.d.p.p.i.p.i.3.O.d.g.f.v.j.p.+X4 @   ",
"C x 6.P.K.G.G.J.G.u.%.W./././././.^.^.W.^.E.L.E.E.L.!.O.O.,.1.1.,.>.,.g.h.l.g.f.j.f.f.p.p.f.p.p.p.i.p.u.u.>.4.f.j.p.v.p.N.( C k ",
"H ` J.K.K.L.K.G.l.%.d./.).^./././.^.E.E.L.L.L.L.L.P.!.O.O.1.1.,.>.,.,.d.d.j.f.f.p.j.f.p.p.p.p.p.p.p.i.i.i.3.>.f.p.v.f.v.j.0XJ U ",
"n Q P.J.G.G.J.J.l.&.G./.^.).^.^.^.E.E.E.L.L.K.K.L.G.!.&.O.,.1.1.,.,.,.g.d.l.f.j.j.p.f.f.p.p.p.p.p.i.i.i.i.u.>.v.v.v.p.f.j.Z.n V ",
"n p P.J.G.G.J.J.j.,.I./.^.^.^.^.^.E.E.L.L.L.K.K.K.G.Q.o.O.1.1.1.,.O.,.d.d.j.f.p.f.v.p.f.d.p.p.p.i.p.p.i.i.u.1.d.v.f.n.p.p.Q.B n ",
"n 8.J.K.J.J.J.F.j.u.^.^.^.E.^.E.E.L.L.L.K.K.K.H.G.F.P.O.O.1.1.1.1.,.,.h.d.f.f.f.p.f.f.p.i.p.p.p.p.i.z.i.u.i.3.i.p.v.v.j.n.Q.M z ",
"v 8.K.J.J.J.F.J.j.d.^.^.^.E.E.E.L.L.K.K.L.J.F.K.F.l.P.#.O.1.1.,.,.1.,.d.a.j.f.f.v.p.v.p.p.p.p.p.i.p.i.i.i.i.4.4.v.f.p.p.p.N.N z ",
"f =.J.J.J.G.F.K.l.g.E.^.H.E.L.L.L.K.K.H.J.J.J.F.l.J.K.@.O.,.,.1.1.,.,.h.d.f.f.p.f.f.n.p.p.p.p.u.u.p.p.u.u.u.d.4.f.f.n.p.p.l.e k ",
"; =.J.J.F.F.F.L.j.j.I.E.E.L.L.L.L.H.K.J.J.J.F.F.m.k.P.o.O.,.,.,.>.,.,.d.a.j.f.f.p.f.p.p.p.p.p.p.p.p.u.p.i.u.d.u.j.p.p.p.n.l.q = ",
"> =.J.J.l.F.M.L.J.F.^.L.H.L.K.H.J.K.J.J.J.J.g.J.m.k.K.&.O.,.,.,.,.,.2.d.a.f.f.f.f.f.p.i.v.i.p.p.u.u.p.z.u.i.g.a.f.f.f.v.p.n.r g ",
"Y =.J.J.J.F.k.P.!.F.H.L.L.K.J.H.G.J.J.J.J.g.J.F.g.k.m.O.O.,.,.,.>.$.1.s.d.d.f.i.p.p.p.f.p.p.i.p.p.p.u.u.u.i.g.p.f.p.f.p.f.N.[ U ",
"L 8.J.J.k.J.J.J.#Xd.H.L.L.J.F.J.F.F.J.F.g.J.m.g.g.g.M.&.:.,.,.,.,.,.,.d.i.h.f.p.f.f.i.v.p.p.i.i.u.p.p.p.u.p.k.h.f.j.p.f.f.N.T P ",
"n u J.J.g.F.J.J.4Xg.H.L.L.J.F.F.F.F.g.F.m.g.g.g.g.g.G.O.O.,.,.,.,.,.,.s.a.d.p.d.i.p.v.i.p.p.i.i.p.u.p.u.u.f.G.g.f.f.p.f.f.Z.m B ",
"n p b.F.J.J.m.g.4XF.L.H.H.F.F.F.F.g.F.g.k.g.g.g.g.v.J.@.O.,.,.,.>.,.>.d.a.d.f.i.f.i.f.v.p.p.i.u.u.p.u.p.u.j.G.f.f.f.p.v.f.Z.B k ",
"v w d.F.g.J.g.J.3X!.K.K.F.F.F.F.g.F.g.g.g.g.g.g.k.g.J.@.>.,.,.,.,.,.,.d.a.f.i.f.i.f.i.p.p.i.i.i.p.u.p.u.u.I.I.f.v.p.f.p.f.S.v v ",
": x 7.J.J.g.g.m.(.3XF.J.F.F.F.g.F.g.g.F.h.g.g.g.g.v.P.#.O.,.,.,.,.,.,.s.<.f.p.f.p.p.p.p.p.i.i.i.u.u.p.p.p.).I.d.p.f.p.n.n.q.k j ",
"@ $ =.J.J.g.F.g.J.9Xg.H.F.F.g.F.g.F.g.d.g.g.d.g.d.d.J.@.,.,.,.,.,.,.,.d.<.d.i.i.p.p.p.p.i.i.i.i.u.p.u.u.j.*XG.f.f.p.p.p.v.e ; * ",
"+ + 9 J.J.J.F.7.F.6XR.F.F.k.F.g.g.g.g.d.g.d.g.d.g.d.J.#.>.1.,.,.,.,.,.s.<.d.d.i.d.p.p.i.i.i.i.i.u.u.u.p.Y.;Xf.f.f.p.p.p.Z.& @ @ ",
"Y n E b.F.h.F.F.g.!.4Xl.F.F.F.g.g.h.g.g.d.g.d.g.d.d.J.$.>.1.,.,.,.,.,.s.<.d.i.p.p.i.i.p.i.i.u.i.i.p.u.p.,X`.f.p.p.v.p.n.V.I U U ",
"' Y G e.g.F.h.h.g.k.6XG.F.F.F.g.g.g.g.d.d.g.d.g.d.d.m.&.>.,.,.,.,.,.,.s.<.d.i.i.i.i.i.c.i.i.u.i.i.u.i.U.>XF.f.f.f.p.f.p.! V Z J ",
"V D n p b.g.g.F.g.k.W.3Xg.F.h.g.g.d.d.g.h.d.d.d.d.d.m.O.O.,.,.5.,.>.,.d.<.d.i.d.i.i.d.i.u.i.i.i.u.p.g.>X-Xh.f.h.p.f.f.x.m k k k ",
"g c v b 7.F.g.g.g.g.k.3XI.F.g.k.g.d.g.d.d.d.d.d.d.d.g.$.,.,.,.,.,.,.5.<.h.<.i.i.i.i.i.a.u.i.i.u.i.i.*X<Xk.f.f.f.p.p.p.y d k k z ",
"$ s d g p b.g.g.g.g.g.G.4XF.F.h.g.g.d.d.v.h.d.d.d.d.v.&.>.,.,.5.5.,.5.<.h.d.i.i.i.a.i.4.i.u.a.u.i.U.1X}.p.f.p.p.j.p.y.4 - d g g ",
"+ @ ; ; & 6.g.g.k.g.g.g.!.#Xk.g.g.h.g.d.h.d.d.d.d.d.M.O.,.5.5.5.5.5.<.h.F.d.4.i.i.i.i.i.4.4.i.a.l.<X:Xp.f.p.p.p.p.p.y * % = % O ",
"+ O + + + 9 d.g.g.g.g.g.g.$X`.g.g.h.d.d.d.d.s.7.d.s.P.,.5.<.s.<.s.s.h.^.H.<.a.u.i.3.3.4.3.i.u.k.<X<Xg.p.p.p.j.p.p.y.X . . . . . ",
"@ @ O O @ & *.h.g.g.g.g.g.g.%X_.g.h.f.f.d.s.d.a.i.a.OXN.2.4.4.<.4.4.a.K.I.a.u.u.4.u.4.u.u.u.l.:X7Xl.p.f.f.d.p.p.p.5 . . % % . . ",
"h : ; @ h j b 7.g.g.g.g.g.v.g.%X].g.f.h.d.d.a.d.d.<.a.h.h.d.d.f.d.d.f.f.p.3.<.3.4.3.3.u.a.I.<X7Xj.p.f.p.p.d.f.p.a = @ , k j = @ ",
"v v n n n n n t <.h.g.d.h.v.g.g.$X#XF.h.d.d.d.d.d.<.i.4.4.4.4.3.4.3.4.3.3.3.u.<.3.3.3.p.*X1X5Xg.h.p.p.f.f.p.i.0.m l l n k n k g ",
"v v n n n n j f y h.g.g.g.g.h.v.h.XX3XL.h.d.a.i.<.<.u.4.4.4.3.3.3.3.3.3.3.3.3.3.3.i.U.<X8X=Xf.f.p.p.p.p.p.p.y.~ V k n k k v v k ",
"z d v n n j n n x 8 d.g.h.h.v.g.g.g.g.@X{.G.g.s.d.<.4.<.3.4.4.4.3.3.3.3.4.5.<.g.Y.<X1X5XK.f.p.f.f.p.d.p.d.z.^ F k n k k l g k B ",
"n h s k l j n n v b 8 d.g.v.g.d.d.g.v.d.M.].`.H.g.g.h.<.<.4.5.4.4.4.a.a.k.Y.*X<X1X5XW.h.d.d.f.i.h.p.p.d.x.w I B k , h n k k l k ",
"n F k l l v v n n n b y 7.v.d.g.d.v.g.d.d.g.g.(._.).L.H.H.H.H.H.I.)..X;X,X>X>X=XG.f.p.d.d.f.f.i.p.p.p.C.^ , I z g k D n k k k k ",
"' Y I V U U Y U I S S K i 2.v.g.g.d.f.g.h.d.f.h.h.g.K.L.L.L.H.^.Y.).).).E.l.d.f.d.d.d.f.f.i.f.f.p.p.x.N J B I I V P U U C C I I ",
"C n F V C C C C C G I H C e *.d.v.d.f.d.g.d.d.f.d.v.h.v.d.d.d.v.h.d.d.d.d.d.f.d.d.d.d.d.d.i.f.d.v.q.& : g v B D C Z S I I I J C ",
"; : C S k @ h V n f h S S V M u 3.d.d.g.d.g.g.f.d.d.h.d.v.d.v.d.f.d.v.d.f.d.v.d.d.v.p.v.d.f.d.S.! ; ; f h f @ c D C n g , B D D ",
"n J U U k % J P Y C I Y U I L I E *.i.f.d.h.h.h.d.d.v.h.d.d.v.d.d.v.d.f.d.f.d.d.d.d.v.d.p.C.qX_ F n J L I L ; n P I L P U U U I ",
"U I C L c # l n Y Y D n n Y U H n C w 0 6.d.f.d.g.h.h.d.v.d.d.d.d.d.d.d.f.d.d.d.d.d.i.S.( 1 f n J U V z n H ; ; g V F U U L D B ",
"S C z L c ; d k n n n n n n n n n z v v N p ;.6.d.d.d.d.d.d.f.d.d.d.d.f.d.v.d.i.x.q.! ] G + d k n V v v n I < + * z z B V z z z ",
"z k V P j + * z n n n n n z n n n z z n k n A ` r 8.0.6.6.i.i.d.d.u.c.6.0.0.a R M v n ' G . $ l n n n n P D > @ > z n n z z n z ",
"n z F U c   * j n n n n n n n n n v n z k v H U , # c A T T [ ^ w w N M b n n n n n n F G + $ s n n n n P P : * s l n z n z z n ",
"z z U U k @ = l n n n n n n n n n n k n k B Y V % # g n n n J n # - g n n n n z n n n Y n @ > g n n n n B I h * - g n z n n n z "
};
