/* XPM */
static char *soool[] = {
/* columns rows colors chars-per-pixel */
"64 64 47 1 ",
"  c #07161F",
". c #09151F",
"X c #071621",
"o c #091621",
"O c #0A1925",
"+ c #0C1D2B",
"@ c #0D1F30",
"# c #0D202E",
"$ c #10212E",
"% c #0D2334",
"& c #0F2639",
"* c #0F2A3E",
"= c #132534",
"- c #152837",
"; c #112739",
": c #122A3D",
"> c #192D3E",
", c #1A303F",
"< c #132D42",
"1 c #192F41",
"2 c #173145",
"3 c #1A3245",
"4 c #173249",
"5 c #1B354A",
"6 c #1F394E",
"7 c #1F3B51",
"8 c #20374B",
"9 c #203A4F",
"0 c #223C52",
"q c #223F58",
"w c #244056",
"e c #284156",
"r c #26435A",
"t c #29455D",
"y c #2A485F",
"u c #2A4761",
"i c #2D4B64",
"p c #2F4F68",
"a c #304E67",
"s c #304F69",
"d c #2F5069",
"f c #33526C",
"g c #365671",
"h c #385773",
"j c #375874",
"k c #395A76",
"l c #3B5D79",
/* pixels */
"O%:%.%;%&&%+o;:::&%%&:*5;&2906kl.&26999999if3%<66999tk3O=;<OO;:<",
"O++OO++O+++OO++#%+Oo+@@+OO:667ilO:679999990f9O*367999k8O++OOOO++",
"lll>fllttllllligllfillfp>O&267kl+*669699969iaO:59999rl3illiwklls",
"stl=:qaggwwwtkgjwwlliull>#:67illO*37909996wga+&<999qkf::0wfktwul",
"00l=@47qq900700577wu00rl::277wkl +*5999999wla %*999wlu=O277uq06t",
"5sl=&*459995569055<0655l>:3650tlX&366999996df#*59999dl,;*6265655",
"@7i=O;*<<3<<%<<2<@:<<<<u>%*<<24f+*509999699ui#<69996wl3#<**<2<%<",
"Xo%Ooo+#o+ooX+=%+X+%%O+=Oo#%O %&+*299999990df+<699990j3.+%O+%+o+",
"$ytttt>o.ooo.o..oo..........:tttO&:6796996qli.&560600h3rtq>9tyw>",
"+rflsfl9O=3:+OOOoOO.o.......;5wg %<665<55<0ff *23655ug=3ifflfhlf",
"+:qft0fk1fr95335=;:;31$Oo...O<2fO&*:::#;*&:2tO:&*<:<<7>-5qfr0qyl",
"O:99999kuhq995<631099999>o..oO@1O%O  #OO# X%+ +.O+.+++O+:76699df",
"o&27999lyf099969981990909=ooqfffffff3uf09tffiuffffu50=.o+<9996gi",
"+*26999k9lw999999:=<<59591O.<tslllgf3alllllgiudllllglf=o+=9999tl",
"O&2699tl3s09999931531<5095Oo&<6ii00t:0000tf00990tllw0k3%O959600f",
" +*6999l1hw999999995900189+.+*6977963969696699997rw70hq:+1O>967f",
"X+:3756k8lft99qqtt09qqq395:.O:69999i-299999999609909il:3%Oo.39rl",
"O&*<<*<rtfeqrfffffffhfffffto+:69990u2559999999969999ig=3&&&X50fl",
"..o+#O%+:0qiat8>>8aarqtat9e-+*5699q199:9990q697599996f:2*<*+3alu",
"-iuasui:it97ffss-affffahsii8:*<699669999697t566299990t0<***+3qhk",
"#76yi0d#7flgpilf+7u0r09uwtf9#*<6999979909999632599606wq2*<**+0tl",
"+*256wkO%6wi77tu+*30995996d9&*57963:255999623a=625655sw3***<O=rl",
"O%*223sO+26077ttX&<2<<:22258+*:32:*%***222:*:5&<:<<::565<**:%o=s",
" O%O+O&.%59999ulX++o+%&+..%+O&#.O%o. #&+o%%+&#@%+Oo%++O:<4=;3:oo",
"t5>etttO&99990kl=t011et-8tt3wtt8-ttt030ttte2>9ttyw>rtw3ttiy06it6",
"fkfkfyl#:<6999ft+wlkfskt=uflkdfl+wpflllhwrkfalkslg+rsgljwrllksfl",
"rldr7rl#*<3676tk+:wgl0st%<9at6rl+<47pfwq60rjgww0ltO%3yjw90wpt60r",
"66666wlO%::<2*5f &269qf9o%5969tl +<699999999690flwO#390699696999",
"60699giOO+&=+O&: +305tl3.:9990hh %:600696999996qlfO&469799660999",
"96539ifO50e000>8 %<09qh0o<595ahq &59930606999990lg#:769369766969",
"23*&27g#4tw66ufk+<50990eO<q35ula %29665963696996urO<53<%*:<5<:25",
"&+OO%:5O%22<:2<io&0599tt&78399il %20600262699996gi #**%O+&#:&++&",
">$->3o..... .. . &979yl0.1:366igXo*3<46i=5606555dg#,1>==$=>1111>",
"kyfkl>5%oo.O#Oo..&376rle.&5526hu.o&***:&o%<<<:&*2u%fllkftglkkkll",
"fltql>k73:=366>..&*32<wt.&:5<<6g .O#Oo..oO+%%Oo.#O#<7isflpw699qh",
"9w9ql>dq905999:O..#OOO%-..%&+%:<OOOO.......o.......&3990w0609990",
"999ig=tf953599# $8999>3993:999>-97<%#= +OO=-=......O299960679999",
"689gi<pi990599>OOefglllfflkkglkutf756655355691<8%. +269566579999",
":<5ug7l70wsii93#.O9eiif99fae0ull0s769696095:99993O.&*22*<<<<3695",
"O%&*77lffftlfkl0..-99999999999tltlfttttkkttq9qtti9+:%%O+%&%*<:&%",
"Ooo++$>=<2332735..=99999999999rl159ttw>3>>3-=:>0t5O+OoOOOoO++#Oo",
"gqfllhtlk:glupll..=99999999999tl=hllf0rt8llluwakllli0=fdhfwfllll",
"kkswtglig+5igfii+O$99999969990fl+4aklflu&0ralhkirtjku+66wlgkuwtf",
"wi600qwtr+<677ft5%O:9999999997fw+:50ruht+:59ii76997gl=:99wu00966",
"2569557tt+2666uk#*%o+>39999960kiO*2799st &509999999rl$=<69962679",
"%*<2<:<5fO:25<5f#:*&&+ >999990il &<660st.+5799999990f+.:222<:<22",
"oo%%+o@&+..+&+O;%2**&%OO309999rl %*59wl3O*3699999999i+ O.+%%O&%o",
".o..... ........$6*:&O.>999996fl +*59wlq%:<799999990hO  ........",
"Ooo O++++o.o++..=5***#-999996whrO&5699at%:69996999wki3e+O...++o.",
"3:=O5553:&O=3:#.$2***%:696565wgt+<6999fr%299999999qgirl03=O185=+",
"09006099099999O =3***%O2>O+OO>,s+*599wl3o:599999999wlrggw5399652",
"99059932656696O.#35*&O+O+%&&%#O#+&3990f3o*<99969999wlwwkr0065060",
"9>999596333999O.O%:*OoO O999>-,9 +2606st.+<79929997fu3sf69953377",
"95:93596799999O.:q23<52OO0gjligl O:67tltO;545369997fu:l06>300539",
"qa53569ww796993.>p66269>.*2wgfllO&<77tgt%<9w:326999wh>l920i70677",
"lflrklllktylytwO,jt0ww95O+:609fg+***2&wt@<<w:<&:55:5felltgkkutkk",
"r0dwtttttilfrfg2=fkfggsf=.:799ttXO%&%OO=.+>8=%o=&&+&39eutwtkjkft",
"=-uu6O3r033uuwqyw3==833,oO:699tf+3=3:==,33-=#=3:===13>O6uuq330uu",
"qpll8$djfuljkkgljluflhhg>+*599fl$ifggfilkhhu3=gfiwfgkg=wjlggllll",
"lltg8#2whgi6qglf0tiaw99l>:*39rgaO:50ilft90fl9.<6flt77d=%2wpllfaw",
"tt7g8&:6009990q09999507k>&<29ulu %:60q9990wlu.<70q69wk,o;99qw099",
"67rk8.&699999999999907tl>%<566al O26999999qlsX@30690fi>O;9990069",
"60dl8.%599999999999999sl:+3790ug &269999999iso+<9990hg;&*2999905",
"90ll8O;29999999999999qgt$+<790fq+&399999990hrO*39999wk3@<2999990"
};
